<svg xmlns="http://www.w3.org/2000/svg" xmlns:xlink="http://www.w3.org/1999/xlink" width="500" zoomAndPan="magnify" viewBox="0 0 375 374.999991" height="500" preserveAspectRatio="xMidYMid meet" version="1.0"><defs><g><g id="id1"/><g id="id2"/></g><clipPath id="id3"><path d="M 113.816406 219.832031 L 262.316406 219.832031 L 262.316406 222.082031 L 113.816406 222.082031 Z M 113.816406 219.832031 " clip-rule="nonzero"/></clipPath><clipPath id="id4"><path d="M 113.816406 195.457031 L 262.316406 195.457031 L 262.316406 197.707031 L 113.816406 197.707031 Z M 113.816406 195.457031 " clip-rule="nonzero"/></clipPath></defs><g fill="rgb(23.919678%, 23.919678%, 23.919678%)" fill-opacity="1"><g transform="translate(89.797271, 182.844787)"><g><path d="M 4.671875 -22.3125 L 0.46875 -22.3125 L 0.46875 -24.890625 L 12.234375 -24.890625 L 12.234375 -22.3125 L 8.140625 -22.3125 L 8.140625 0 L 4.671875 0 Z M 4.671875 -22.3125 "/></g></g></g><g fill="rgb(23.919678%, 23.919678%, 23.919678%)" fill-opacity="1"><g transform="translate(102.487314, 182.844787)"><g><path d="M 1.9375 -24.890625 L 5.40625 -24.890625 L 5.40625 -14.140625 L 11.796875 -14.140625 L 11.796875 -24.890625 L 15.28125 -24.890625 L 15.28125 0 L 11.796875 0 L 11.796875 -11.640625 L 5.40625 -11.640625 L 5.40625 0 L 1.9375 0 Z M 1.9375 -24.890625 "/></g></g></g><g fill="rgb(23.919678%, 23.919678%, 23.919678%)" fill-opacity="1"><g transform="translate(119.724874, 182.844787)"><g><path d="M 8.296875 0.28125 C 5.859375 0.28125 4.109375 -0.410156 3.046875 -1.796875 C 1.992188 -3.179688 1.46875 -5.1875 1.46875 -7.8125 L 1.46875 -17.234375 C 1.46875 -19.816406 2 -21.773438 3.0625 -23.109375 C 4.132812 -24.441406 5.878906 -25.109375 8.296875 -25.109375 C 10.710938 -25.109375 12.445312 -24.4375 13.5 -23.09375 C 14.5625 -21.75 15.09375 -19.796875 15.09375 -17.234375 L 15.09375 -7.78125 C 15.09375 -5.195312 14.554688 -3.207031 13.484375 -1.8125 C 12.421875 -0.414062 10.691406 0.28125 8.296875 0.28125 Z M 8.296875 -2.453125 C 9.585938 -2.453125 10.457031 -2.832031 10.90625 -3.59375 C 11.363281 -4.351562 11.59375 -5.5 11.59375 -7.03125 L 11.59375 -17.953125 C 11.59375 -19.460938 11.363281 -20.582031 10.90625 -21.3125 C 10.457031 -22.039062 9.585938 -22.40625 8.296875 -22.40625 C 6.984375 -22.40625 6.101562 -22.039062 5.65625 -21.3125 C 5.207031 -20.582031 4.984375 -19.460938 4.984375 -17.953125 L 4.984375 -7.03125 C 4.984375 -5.5 5.207031 -4.351562 5.65625 -3.59375 C 6.101562 -2.832031 6.984375 -2.453125 8.296875 -2.453125 Z M 8.296875 -2.453125 "/></g></g></g><g fill="rgb(23.919678%, 23.919678%, 23.919678%)" fill-opacity="1"><g transform="translate(136.286453, 182.844787)"><g><path d="M 2.328125 -24.890625 L 5.75 -24.890625 L 10.140625 -4.703125 L 14.5625 -24.890625 L 17.953125 -24.890625 L 18.40625 0 L 15.609375 0 L 15.34375 -18.078125 L 11.125 0 L 9.15625 0 L 4.984375 -18.078125 L 4.703125 0 L 1.875 0 Z M 2.328125 -24.890625 "/></g></g></g><g fill="rgb(23.919678%, 23.919678%, 23.919678%)" fill-opacity="1"><g transform="translate(156.565932, 182.844787)"><g><path d="M 5.875 -24.890625 L 9.21875 -24.890625 L 14.53125 0 L 11.25 0 L 10.109375 -6.265625 L 5.046875 -6.265625 L 3.84375 0 L 0.578125 0 Z M 9.65625 -8.765625 L 7.5625 -19.984375 L 5.5 -8.765625 Z M 9.65625 -8.765625 "/></g></g></g><g fill="rgb(23.919678%, 23.919678%, 23.919678%)" fill-opacity="1"><g transform="translate(171.683371, 182.844787)"><g><path d="M 7.8125 0.28125 C 5.71875 0.28125 4.125 -0.363281 3.03125 -1.65625 C 1.9375 -2.945312 1.328125 -4.722656 1.203125 -6.984375 L 4.265625 -7.8125 C 4.367188 -6.207031 4.679688 -4.910156 5.203125 -3.921875 C 5.734375 -2.941406 6.601562 -2.453125 7.8125 -2.453125 C 8.707031 -2.453125 9.382812 -2.703125 9.84375 -3.203125 C 10.3125 -3.710938 10.546875 -4.4375 10.546875 -5.375 C 10.546875 -6.40625 10.328125 -7.253906 9.890625 -7.921875 C 9.460938 -8.597656 8.78125 -9.347656 7.84375 -10.171875 L 3.65625 -13.859375 C 2.8125 -14.597656 2.203125 -15.390625 1.828125 -16.234375 C 1.453125 -17.085938 1.265625 -18.128906 1.265625 -19.359375 C 1.265625 -21.179688 1.785156 -22.59375 2.828125 -23.59375 C 3.867188 -24.601562 5.289062 -25.109375 7.09375 -25.109375 C 9.0625 -25.109375 10.546875 -24.582031 11.546875 -23.53125 C 12.554688 -22.488281 13.164062 -20.875 13.375 -18.6875 L 10.421875 -17.890625 C 10.316406 -19.335938 10.03125 -20.457031 9.5625 -21.25 C 9.101562 -22.039062 8.28125 -22.4375 7.09375 -22.4375 C 6.21875 -22.4375 5.539062 -22.203125 5.0625 -21.734375 C 4.59375 -21.273438 4.359375 -20.597656 4.359375 -19.703125 C 4.359375 -18.960938 4.484375 -18.34375 4.734375 -17.84375 C 4.984375 -17.34375 5.40625 -16.832031 6 -16.3125 L 10.203125 -12.625 C 11.285156 -11.664062 12.148438 -10.625 12.796875 -9.5 C 13.441406 -8.375 13.765625 -7.09375 13.765625 -5.65625 C 13.765625 -3.832031 13.210938 -2.382812 12.109375 -1.3125 C 11.003906 -0.25 9.570312 0.28125 7.8125 0.28125 Z M 7.8125 0.28125 "/></g></g></g><g fill="rgb(23.919678%, 23.919678%, 23.919678%)" fill-opacity="1"><g transform="translate(186.217, 182.844787)"><g/></g></g><g fill="rgb(23.919678%, 23.919678%, 23.919678%)" fill-opacity="1"><g transform="translate(193.253365, 182.844787)"><g><path d="M 4.671875 -22.3125 L 0.46875 -22.3125 L 0.46875 -24.890625 L 12.234375 -24.890625 L 12.234375 -22.3125 L 8.140625 -22.3125 L 8.140625 0 L 4.671875 0 Z M 4.671875 -22.3125 "/></g></g></g><g fill="rgb(23.919678%, 23.919678%, 23.919678%)" fill-opacity="1"><g transform="translate(205.943409, 182.844787)"><g><path d="M 1.9375 -24.890625 L 5.40625 -24.890625 L 5.40625 -14.140625 L 11.796875 -14.140625 L 11.796875 -24.890625 L 15.28125 -24.890625 L 15.28125 0 L 11.796875 0 L 11.796875 -11.640625 L 5.40625 -11.640625 L 5.40625 0 L 1.9375 0 Z M 1.9375 -24.890625 "/></g></g></g><g fill="rgb(23.919678%, 23.919678%, 23.919678%)" fill-opacity="1"><g transform="translate(223.180968, 182.844787)"><g><path d="M 8.359375 0.28125 C 6.617188 0.28125 5.257812 -0.0664062 4.28125 -0.765625 C 3.3125 -1.460938 2.640625 -2.4375 2.265625 -3.6875 C 1.898438 -4.9375 1.71875 -6.503906 1.71875 -8.390625 L 1.71875 -24.890625 L 5.046875 -24.890625 L 5.046875 -8.234375 C 5.046875 -6.347656 5.265625 -4.910156 5.703125 -3.921875 C 6.140625 -2.941406 7.023438 -2.453125 8.359375 -2.453125 C 9.691406 -2.453125 10.578125 -2.941406 11.015625 -3.921875 C 11.453125 -4.910156 11.671875 -6.347656 11.671875 -8.234375 L 11.671875 -24.890625 L 14.96875 -24.890625 L 14.96875 -8.390625 C 14.96875 -6.503906 14.78125 -4.9375 14.40625 -3.6875 C 14.039062 -2.4375 13.375 -1.460938 12.40625 -0.765625 C 11.445312 -0.0664062 10.097656 0.28125 8.359375 0.28125 Z M 8.359375 0.28125 "/></g></g></g><g fill="rgb(23.919678%, 23.919678%, 23.919678%)" fill-opacity="1"><g transform="translate(239.865457, 182.844787)"><g><path d="M 1.9375 -24.890625 L 6.953125 -24.890625 C 9.460938 -24.890625 11.304688 -24.375 12.484375 -23.34375 C 13.671875 -22.3125 14.265625 -20.625 14.265625 -18.28125 C 14.265625 -15.09375 13.238281 -13.160156 11.1875 -12.484375 L 14.71875 0 L 11.375 0 L 8.109375 -11.671875 L 5.40625 -11.671875 L 5.40625 0 L 1.9375 0 Z M 6.734375 -14.171875 C 8.222656 -14.171875 9.289062 -14.46875 9.9375 -15.0625 C 10.582031 -15.65625 10.90625 -16.726562 10.90625 -18.28125 C 10.90625 -19.3125 10.789062 -20.117188 10.5625 -20.703125 C 10.34375 -21.285156 9.945312 -21.710938 9.375 -21.984375 C 8.800781 -22.265625 7.992188 -22.40625 6.953125 -22.40625 L 5.40625 -22.40625 L 5.40625 -14.171875 Z M 6.734375 -14.171875 "/></g></g></g><g fill="rgb(23.919678%, 23.919678%, 23.919678%)" fill-opacity="1"><g transform="translate(255.812501, 182.844787)"><g><path d="M 1.171875 -2.484375 L 8.484375 -22.40625 L 1.625 -22.40625 L 1.625 -24.890625 L 12.171875 -24.890625 L 12.171875 -23.390625 L 4.453125 -2.484375 L 12.171875 -2.484375 L 12.171875 0 L 1.171875 0 Z M 1.171875 -2.484375 "/></g></g></g><g fill="rgb(23.919678%, 23.919678%, 23.919678%)" fill-opacity="1"><g transform="translate(268.625442, 182.844787)"><g><path d="M 8.296875 0.28125 C 5.859375 0.28125 4.109375 -0.410156 3.046875 -1.796875 C 1.992188 -3.179688 1.46875 -5.1875 1.46875 -7.8125 L 1.46875 -17.234375 C 1.46875 -19.816406 2 -21.773438 3.0625 -23.109375 C 4.132812 -24.441406 5.878906 -25.109375 8.296875 -25.109375 C 10.710938 -25.109375 12.445312 -24.4375 13.5 -23.09375 C 14.5625 -21.75 15.09375 -19.796875 15.09375 -17.234375 L 15.09375 -7.78125 C 15.09375 -5.195312 14.554688 -3.207031 13.484375 -1.8125 C 12.421875 -0.414062 10.691406 0.28125 8.296875 0.28125 Z M 8.296875 -2.453125 C 9.585938 -2.453125 10.457031 -2.832031 10.90625 -3.59375 C 11.363281 -4.351562 11.59375 -5.5 11.59375 -7.03125 L 11.59375 -17.953125 C 11.59375 -19.460938 11.363281 -20.582031 10.90625 -21.3125 C 10.457031 -22.039062 9.585938 -22.40625 8.296875 -22.40625 C 6.984375 -22.40625 6.101562 -22.039062 5.65625 -21.3125 C 5.207031 -20.582031 4.984375 -19.460938 4.984375 -17.953125 L 4.984375 -7.03125 C 4.984375 -5.5 5.207031 -4.351562 5.65625 -3.59375 C 6.101562 -2.832031 6.984375 -2.453125 8.296875 -2.453125 Z M 8.296875 -2.453125 "/></g></g></g><g fill="rgb(23.919678%, 23.919678%, 23.919678%)" fill-opacity="1"><g transform="translate(106.38733, 211.427638)"><g><path d="M 1.90625 0 L 0.71875 0 L 0.71875 -5.671875 L 3.96875 -5.671875 L 3.96875 -4.6875 L 1.90625 -4.6875 L 1.90625 -3.234375 L 3.828125 -3.234375 L 3.828125 -2.25 L 1.90625 -2.25 Z M 1.90625 0 "/></g></g></g><g fill="rgb(23.919678%, 23.919678%, 23.919678%)" fill-opacity="1"><g transform="translate(113.928064, 211.427638)"><g><path d="M 5.328125 -5.671875 L 5.328125 -2 C 5.328125 -1.582031 5.234375 -1.210938 5.046875 -0.890625 C 4.859375 -0.578125 4.585938 -0.335938 4.234375 -0.171875 C 3.878906 -0.00390625 3.460938 0.078125 2.984375 0.078125 C 2.253906 0.078125 1.6875 -0.109375 1.28125 -0.484375 C 0.875 -0.859375 0.671875 -1.367188 0.671875 -2.015625 L 0.671875 -5.671875 L 1.875 -5.671875 L 1.875 -2.203125 C 1.875 -1.765625 1.960938 -1.441406 2.140625 -1.234375 C 2.316406 -1.035156 2.609375 -0.9375 3.015625 -0.9375 C 3.410156 -0.9375 3.695312 -1.035156 3.875 -1.234375 C 4.050781 -1.441406 4.140625 -1.765625 4.140625 -2.203125 L 4.140625 -5.671875 Z M 5.328125 -5.671875 "/></g></g></g><g fill="rgb(23.919678%, 23.919678%, 23.919678%)" fill-opacity="1"><g transform="translate(123.113727, 211.427638)"><g><path d="M 0.71875 0 L 0.71875 -5.671875 L 1.921875 -5.671875 L 1.921875 -1 L 4.21875 -1 L 4.21875 0 Z M 0.71875 0 "/></g></g></g><g fill="rgb(23.919678%, 23.919678%, 23.919678%)" fill-opacity="1"><g transform="translate(130.782487, 211.427638)"><g><path d="M 0.71875 0 L 0.71875 -5.671875 L 1.921875 -5.671875 L 1.921875 -1 L 4.21875 -1 L 4.21875 0 Z M 0.71875 0 "/></g></g></g><g fill="rgb(23.919678%, 23.919678%, 23.919678%)" fill-opacity="1"><g transform="translate(138.451247, 211.427638)"><g/></g></g><g fill="rgb(23.919678%, 23.919678%, 23.919678%)" fill-opacity="1"><g transform="translate(143.69529, 211.427638)"><g><path d="M 4.0625 -1.578125 C 4.0625 -1.066406 3.875 -0.660156 3.5 -0.359375 C 3.132812 -0.0664062 2.625 0.078125 1.96875 0.078125 C 1.363281 0.078125 0.828125 -0.0351562 0.359375 -0.265625 L 0.359375 -1.375 C 0.742188 -1.207031 1.066406 -1.085938 1.328125 -1.015625 C 1.597656 -0.953125 1.84375 -0.921875 2.0625 -0.921875 C 2.332031 -0.921875 2.535156 -0.96875 2.671875 -1.0625 C 2.816406 -1.164062 2.890625 -1.316406 2.890625 -1.515625 C 2.890625 -1.628906 2.859375 -1.726562 2.796875 -1.8125 C 2.734375 -1.90625 2.640625 -1.988281 2.515625 -2.0625 C 2.398438 -2.144531 2.15625 -2.273438 1.78125 -2.453125 C 1.4375 -2.609375 1.175781 -2.757812 1 -2.90625 C 0.820312 -3.0625 0.679688 -3.238281 0.578125 -3.4375 C 0.484375 -3.644531 0.4375 -3.878906 0.4375 -4.140625 C 0.4375 -4.640625 0.601562 -5.035156 0.9375 -5.328125 C 1.28125 -5.617188 1.753906 -5.765625 2.359375 -5.765625 C 2.648438 -5.765625 2.925781 -5.726562 3.1875 -5.65625 C 3.457031 -5.582031 3.738281 -5.484375 4.03125 -5.359375 L 3.65625 -4.421875 C 3.351562 -4.546875 3.101562 -4.628906 2.90625 -4.671875 C 2.707031 -4.722656 2.507812 -4.75 2.3125 -4.75 C 2.082031 -4.75 1.90625 -4.695312 1.78125 -4.59375 C 1.664062 -4.488281 1.609375 -4.351562 1.609375 -4.1875 C 1.609375 -4.070312 1.628906 -3.972656 1.671875 -3.890625 C 1.722656 -3.816406 1.800781 -3.742188 1.90625 -3.671875 C 2.019531 -3.597656 2.273438 -3.46875 2.671875 -3.28125 C 3.203125 -3.019531 3.566406 -2.757812 3.765625 -2.5 C 3.960938 -2.25 4.0625 -1.941406 4.0625 -1.578125 Z M 4.0625 -1.578125 "/></g></g></g><g fill="rgb(23.919678%, 23.919678%, 23.919678%)" fill-opacity="1"><g transform="translate(151.251543, 211.427638)"><g><path d="M 2.90625 0 L 1.703125 0 L 1.703125 -4.671875 L 0.15625 -4.671875 L 0.15625 -5.671875 L 4.453125 -5.671875 L 4.453125 -4.671875 L 2.90625 -4.671875 Z M 2.90625 0 "/></g></g></g><g fill="rgb(23.919678%, 23.919678%, 23.919678%)" fill-opacity="1"><g transform="translate(159.032809, 211.427638)"><g><path d="M 4.1875 0 L 3.78125 -1.34375 L 1.703125 -1.34375 L 1.296875 0 L 0 0 L 2 -5.703125 L 3.46875 -5.703125 L 5.484375 0 Z M 3.484375 -2.359375 C 3.109375 -3.585938 2.894531 -4.28125 2.84375 -4.4375 C 2.800781 -4.59375 2.769531 -4.71875 2.75 -4.8125 C 2.664062 -4.488281 2.421875 -3.671875 2.015625 -2.359375 Z M 3.484375 -2.359375 "/></g></g></g><g fill="rgb(23.919678%, 23.919678%, 23.919678%)" fill-opacity="1"><g transform="translate(167.694733, 211.427638)"><g><path d="M 3.125 -4.75 C 2.675781 -4.75 2.328125 -4.578125 2.078125 -4.234375 C 1.828125 -3.898438 1.703125 -3.429688 1.703125 -2.828125 C 1.703125 -1.554688 2.175781 -0.921875 3.125 -0.921875 C 3.519531 -0.921875 4.003906 -1.019531 4.578125 -1.21875 L 4.578125 -0.21875 C 4.109375 -0.0195312 3.585938 0.078125 3.015625 0.078125 C 2.191406 0.078125 1.5625 -0.171875 1.125 -0.671875 C 0.6875 -1.171875 0.46875 -1.890625 0.46875 -2.828125 C 0.46875 -3.421875 0.570312 -3.9375 0.78125 -4.375 C 1 -4.820312 1.304688 -5.164062 1.703125 -5.40625 C 2.109375 -5.644531 2.582031 -5.765625 3.125 -5.765625 C 3.675781 -5.765625 4.226562 -5.628906 4.78125 -5.359375 L 4.40625 -4.375 C 4.1875 -4.476562 3.96875 -4.566406 3.75 -4.640625 C 3.539062 -4.710938 3.332031 -4.75 3.125 -4.75 Z M 3.125 -4.75 "/></g></g></g><g fill="rgb(23.919678%, 23.919678%, 23.919678%)" fill-opacity="1"><g transform="translate(175.937666, 211.427638)"><g><path d="M 5.28125 0 L 3.921875 0 L 2.421875 -2.390625 L 1.921875 -2.03125 L 1.921875 0 L 0.71875 0 L 0.71875 -5.671875 L 1.921875 -5.671875 L 1.921875 -3.078125 L 2.390625 -3.75 L 3.9375 -5.671875 L 5.265625 -5.671875 L 3.28125 -3.171875 Z M 5.28125 0 "/></g></g></g><g fill="rgb(23.919678%, 23.919678%, 23.919678%)" fill-opacity="1"><g transform="translate(184.393974, 211.427638)"><g/></g></g><g fill="rgb(23.919678%, 23.919678%, 23.919678%)" fill-opacity="1"><g transform="translate(189.638017, 211.427638)"><g><path d="M 3.984375 0 L 0.71875 0 L 0.71875 -5.671875 L 3.984375 -5.671875 L 3.984375 -4.6875 L 1.921875 -4.6875 L 1.921875 -3.4375 L 3.84375 -3.4375 L 3.84375 -2.453125 L 1.921875 -2.453125 L 1.921875 -1 L 3.984375 -1 Z M 3.984375 0 "/></g></g></g><g fill="rgb(23.919678%, 23.919678%, 23.919678%)" fill-opacity="1"><g transform="translate(197.267981, 211.427638)"><g><path d="M 5.75 0 L 4.21875 0 L 1.75 -4.296875 L 1.71875 -4.296875 C 1.769531 -3.535156 1.796875 -2.992188 1.796875 -2.671875 L 1.796875 0 L 0.71875 0 L 0.71875 -5.671875 L 2.234375 -5.671875 L 4.703125 -1.421875 L 4.71875 -1.421875 C 4.6875 -2.160156 4.671875 -2.679688 4.671875 -2.984375 L 4.671875 -5.671875 L 5.75 -5.671875 Z M 5.75 0 "/></g></g></g><g fill="rgb(23.919678%, 23.919678%, 23.919678%)" fill-opacity="1"><g transform="translate(206.907556, 211.427638)"><g><path d="M 2.90625 0 L 1.703125 0 L 1.703125 -4.671875 L 0.15625 -4.671875 L 0.15625 -5.671875 L 4.453125 -5.671875 L 4.453125 -4.671875 L 2.90625 -4.671875 Z M 2.90625 0 "/></g></g></g><g fill="rgb(23.919678%, 23.919678%, 23.919678%)" fill-opacity="1"><g transform="translate(214.688829, 211.427638)"><g><path d="M 6.25 0 L 4.875 0 L 4.109375 -2.984375 C 4.078125 -3.085938 4.023438 -3.304688 3.953125 -3.640625 C 3.890625 -3.972656 3.851562 -4.195312 3.84375 -4.3125 C 3.820312 -4.164062 3.78125 -3.9375 3.71875 -3.625 C 3.65625 -3.320312 3.609375 -3.101562 3.578125 -2.96875 L 2.8125 0 L 1.453125 0 L 0 -5.671875 L 1.1875 -5.671875 L 1.90625 -2.578125 C 2.03125 -2.003906 2.125 -1.507812 2.1875 -1.09375 C 2.195312 -1.238281 2.226562 -1.460938 2.28125 -1.765625 C 2.34375 -2.078125 2.398438 -2.320312 2.453125 -2.5 L 3.28125 -5.671875 L 4.421875 -5.671875 L 5.25 -2.5 C 5.28125 -2.351562 5.320312 -2.132812 5.375 -1.84375 C 5.425781 -1.550781 5.46875 -1.300781 5.5 -1.09375 C 5.53125 -1.289062 5.570312 -1.539062 5.625 -1.84375 C 5.6875 -2.144531 5.738281 -2.390625 5.78125 -2.578125 L 6.5 -5.671875 L 7.6875 -5.671875 Z M 6.25 0 "/></g></g></g><g fill="rgb(23.919678%, 23.919678%, 23.919678%)" fill-opacity="1"><g transform="translate(225.550461, 211.427638)"><g><path d="M 0.71875 0 L 0.71875 -5.671875 L 1.921875 -5.671875 L 1.921875 0 Z M 0.71875 0 "/></g></g></g><g fill="rgb(23.919678%, 23.919678%, 23.919678%)" fill-opacity="1"><g transform="translate(231.360924, 211.427638)"><g><path d="M 3.125 -4.75 C 2.675781 -4.75 2.328125 -4.578125 2.078125 -4.234375 C 1.828125 -3.898438 1.703125 -3.429688 1.703125 -2.828125 C 1.703125 -1.554688 2.175781 -0.921875 3.125 -0.921875 C 3.519531 -0.921875 4.003906 -1.019531 4.578125 -1.21875 L 4.578125 -0.21875 C 4.109375 -0.0195312 3.585938 0.078125 3.015625 0.078125 C 2.191406 0.078125 1.5625 -0.171875 1.125 -0.671875 C 0.6875 -1.171875 0.46875 -1.890625 0.46875 -2.828125 C 0.46875 -3.421875 0.570312 -3.9375 0.78125 -4.375 C 1 -4.820312 1.304688 -5.164062 1.703125 -5.40625 C 2.109375 -5.644531 2.582031 -5.765625 3.125 -5.765625 C 3.675781 -5.765625 4.226562 -5.628906 4.78125 -5.359375 L 4.40625 -4.375 C 4.1875 -4.476562 3.96875 -4.566406 3.75 -4.640625 C 3.539062 -4.710938 3.332031 -4.75 3.125 -4.75 Z M 3.125 -4.75 "/></g></g></g><g fill="rgb(23.919678%, 23.919678%, 23.919678%)" fill-opacity="1"><g transform="translate(239.603851, 211.427638)"><g><path d="M 5.28125 0 L 3.921875 0 L 2.421875 -2.390625 L 1.921875 -2.03125 L 1.921875 0 L 0.71875 0 L 0.71875 -5.671875 L 1.921875 -5.671875 L 1.921875 -3.078125 L 2.390625 -3.75 L 3.9375 -5.671875 L 5.265625 -5.671875 L 3.28125 -3.171875 Z M 5.28125 0 "/></g></g></g><g fill="rgb(23.919678%, 23.919678%, 23.919678%)" fill-opacity="1"><g transform="translate(248.060164, 211.427638)"><g><path d="M 0.71875 0 L 0.71875 -5.671875 L 1.921875 -5.671875 L 1.921875 -1 L 4.21875 -1 L 4.21875 0 Z M 0.71875 0 "/></g></g></g><g fill="rgb(23.919678%, 23.919678%, 23.919678%)" fill-opacity="1"><g transform="translate(255.728918, 211.427638)"><g><path d="M 3.984375 0 L 0.71875 0 L 0.71875 -5.671875 L 3.984375 -5.671875 L 3.984375 -4.6875 L 1.921875 -4.6875 L 1.921875 -3.4375 L 3.84375 -3.4375 L 3.84375 -2.453125 L 1.921875 -2.453125 L 1.921875 -1 L 3.984375 -1 Z M 3.984375 0 "/></g></g></g><g fill="rgb(23.919678%, 23.919678%, 23.919678%)" fill-opacity="1"><g transform="translate(263.358877, 211.427638)"><g><path d="M 1.921875 -3.15625 L 2.3125 -3.15625 C 2.6875 -3.15625 2.960938 -3.21875 3.140625 -3.34375 C 3.328125 -3.46875 3.421875 -3.671875 3.421875 -3.953125 C 3.421875 -4.210938 3.328125 -4.398438 3.140625 -4.515625 C 2.953125 -4.628906 2.664062 -4.6875 2.28125 -4.6875 L 1.921875 -4.6875 Z M 1.921875 -2.171875 L 1.921875 0 L 0.71875 0 L 0.71875 -5.671875 L 2.375 -5.671875 C 3.144531 -5.671875 3.710938 -5.53125 4.078125 -5.25 C 4.453125 -4.96875 4.640625 -4.546875 4.640625 -3.984375 C 4.640625 -3.640625 4.546875 -3.335938 4.359375 -3.078125 C 4.171875 -2.816406 3.910156 -2.613281 3.578125 -2.46875 C 4.429688 -1.195312 4.988281 -0.375 5.25 0 L 3.921875 0 L 2.5625 -2.171875 Z M 1.921875 -2.171875 "/></g></g></g><g clip-path="url(#id3)"><path fill="rgb(65.879822%, 65.879822%, 65.879822%)" d="M 113.816406 146.707031 L 262.316406 146.707031 L 262.316406 295.207031 L 113.816406 295.207031 Z M 113.816406 146.707031 " fill-opacity="1" fill-rule="nonzero"/></g><g clip-path="url(#id4)"><path fill="rgb(65.879822%, 65.879822%, 65.879822%)" d="M 113.816406 122.332031 L 262.316406 122.332031 L 262.316406 270.832031 L 113.816406 270.832031 Z M 113.816406 122.332031 " fill-opacity="1" fill-rule="nonzero"/></g></svg>