<svg xmlns="http://www.w3.org/2000/svg" xmlns:xlink="http://www.w3.org/1999/xlink" width="559" zoomAndPan="magnify" viewBox="0 0 419.25 297.75" height="397" preserveAspectRatio="xMidYMid meet" version="1.0"><defs><g><g id="id1"/><g id="id2"/></g></defs><g fill="rgb(0%, 0%, 0%)" fill-opacity="1"><g transform="translate(85.942536, 100.47503)"><g><path d="M 40.09375 -59.15625 C 40.09375 -57.707031 39.53125 -56.390625 38.40625 -55.203125 C 37.28125 -54.023438 35.921875 -52.988281 34.328125 -52.09375 C 32.742188 -51.195312 31.113281 -50.457031 29.4375 -49.875 C 27.769531 -49.300781 26.390625 -48.898438 25.296875 -48.671875 C 24.828125 -44.222656 24.460938 -39.789062 24.203125 -35.375 C 23.941406 -30.957031 23.8125 -26.523438 23.8125 -22.078125 C 23.8125 -19.710938 23.867188 -17.375 23.984375 -15.0625 C 24.097656 -12.757812 24.15625 -10.453125 24.15625 -8.140625 C 24.15625 -7.097656 24.054688 -5.957031 23.859375 -4.71875 C 23.660156 -3.476562 23.3125 -2.304688 22.8125 -1.203125 C 22.320312 -0.109375 21.644531 0.8125 20.78125 1.5625 C 19.914062 2.3125 18.847656 2.6875 17.578125 2.6875 C 16.078125 2.6875 14.878906 2.265625 13.984375 1.421875 C 13.085938 0.585938 12.394531 -0.429688 11.90625 -1.640625 C 11.414062 -2.859375 11.082031 -4.144531 10.90625 -5.5 C 10.738281 -6.851562 10.65625 -8.082031 10.65625 -9.1875 C 10.539062 -12.644531 10.453125 -16.117188 10.390625 -19.609375 C 10.335938 -23.109375 10.3125 -26.617188 10.3125 -30.140625 C 10.3125 -33.085938 10.320312 -35.972656 10.34375 -38.796875 C 10.375 -41.628906 10.390625 -44.519531 10.390625 -47.46875 C 9.585938 -47.34375 8.765625 -47.25 7.921875 -47.1875 C 7.085938 -47.132812 6.238281 -47.109375 5.375 -47.109375 C 4.675781 -47.109375 3.765625 -47.179688 2.640625 -47.328125 C 1.515625 -47.472656 0.429688 -47.734375 -0.609375 -48.109375 C -1.648438 -48.484375 -2.546875 -49.003906 -3.296875 -49.671875 C -4.046875 -50.335938 -4.421875 -51.1875 -4.421875 -52.21875 C -4.421875 -53.957031 -3.738281 -55.472656 -2.375 -56.765625 C -1.019531 -58.066406 0.707031 -59.191406 2.8125 -60.140625 C 4.914062 -61.097656 7.253906 -61.910156 9.828125 -62.578125 C 12.398438 -63.242188 14.941406 -63.765625 17.453125 -64.140625 C 19.960938 -64.515625 22.269531 -64.785156 24.375 -64.953125 C 26.488281 -65.128906 28.125 -65.21875 29.28125 -65.21875 C 30.375 -65.21875 31.539062 -65.171875 32.78125 -65.078125 C 34.019531 -64.992188 35.1875 -64.75 36.28125 -64.34375 C 37.382812 -63.945312 38.296875 -63.34375 39.015625 -62.53125 C 39.734375 -61.71875 40.09375 -60.59375 40.09375 -59.15625 Z M 40.09375 -59.15625 "/></g></g></g><g fill="rgb(0%, 0%, 0%)" fill-opacity="1"><g transform="translate(118.942453, 100.47503)"><g><path d="M 41.921875 -22.4375 C 41.921875 -21.445312 41.90625 -19.984375 41.875 -18.046875 C 41.84375 -16.117188 41.753906 -14.097656 41.609375 -11.984375 C 41.472656 -9.878906 41.285156 -7.890625 41.046875 -6.015625 C 40.816406 -4.140625 40.53125 -2.769531 40.1875 -1.90625 C 39.726562 -0.8125 39.117188 0.140625 38.359375 0.953125 C 37.609375 1.765625 36.601562 2.171875 35.34375 2.171875 C 33.375 2.171875 31.957031 1.390625 31.09375 -0.171875 C 30.226562 -1.734375 29.648438 -3.664062 29.359375 -5.96875 C 29.066406 -8.28125 28.945312 -10.789062 29 -13.5 C 29.0625 -16.21875 29.035156 -18.734375 28.921875 -21.046875 C 28.804688 -23.359375 28.488281 -25.289062 27.96875 -26.84375 C 27.445312 -28.40625 26.492188 -29.1875 25.109375 -29.1875 C 23.210938 -29.1875 21.757812 -28.882812 20.75 -28.28125 C 19.738281 -27.675781 19.015625 -26.878906 18.578125 -25.890625 C 18.140625 -24.910156 17.878906 -23.785156 17.796875 -22.515625 C 17.710938 -21.242188 17.613281 -19.914062 17.5 -18.53125 C 17.382812 -17.207031 17.296875 -15.414062 17.234375 -13.15625 C 17.179688 -10.90625 16.921875 -8.679688 16.453125 -6.484375 C 15.992188 -4.296875 15.226562 -2.40625 14.15625 -0.8125 C 13.09375 0.769531 11.519531 1.5625 9.4375 1.5625 C 8.164062 1.5625 7.140625 1.066406 6.359375 0.078125 C 5.585938 -0.898438 4.96875 -2.164062 4.5 -3.71875 C 4.039062 -5.28125 3.707031 -7.015625 3.5 -8.921875 C 3.300781 -10.828125 3.1875 -12.6875 3.15625 -14.5 C 3.132812 -16.320312 3.132812 -17.984375 3.15625 -19.484375 C 3.1875 -20.984375 3.203125 -22.109375 3.203125 -22.859375 C 3.203125 -24.015625 3.242188 -25.921875 3.328125 -28.578125 C 3.421875 -31.234375 3.609375 -34.191406 3.890625 -37.453125 C 4.179688 -40.722656 4.554688 -44.085938 5.015625 -47.546875 C 5.484375 -51.015625 6.09375 -54.175781 6.84375 -57.03125 C 7.59375 -59.882812 8.5 -62.207031 9.5625 -64 C 10.632812 -65.789062 11.894531 -66.660156 13.34375 -66.609375 C 14.257812 -66.546875 15.050781 -66.140625 15.71875 -65.390625 C 16.382812 -64.640625 16.929688 -63.671875 17.359375 -62.484375 C 17.796875 -61.304688 18.15625 -60.023438 18.4375 -58.640625 C 18.726562 -57.253906 18.945312 -55.878906 19.09375 -54.515625 C 19.238281 -53.160156 19.328125 -51.90625 19.359375 -50.75 C 19.390625 -49.59375 19.40625 -48.695312 19.40625 -48.0625 C 19.40625 -46.5625 19.375 -45.0625 19.3125 -43.5625 C 19.257812 -42.0625 19.171875 -40.5625 19.046875 -39.0625 C 20.378906 -40.851562 22.15625 -42.320312 24.375 -43.46875 C 26.601562 -44.625 28.84375 -45.203125 31.09375 -45.203125 C 33.976562 -45.203125 36.15625 -44.410156 37.625 -42.828125 C 39.101562 -41.242188 40.160156 -39.28125 40.796875 -36.9375 C 41.429688 -34.601562 41.773438 -32.117188 41.828125 -29.484375 C 41.890625 -26.859375 41.921875 -24.507812 41.921875 -22.4375 Z M 41.921875 -22.4375 "/></g></g></g><g fill="rgb(0%, 0%, 0%)" fill-opacity="1"><g transform="translate(164.414781, 100.47503)"><g><path d="M 19.046875 2.515625 C 16.109375 2.515625 13.539062 1.734375 11.34375 0.171875 C 9.144531 -1.390625 7.296875 -3.378906 5.796875 -5.796875 C 4.296875 -8.222656 3.171875 -10.921875 2.421875 -13.890625 C 1.671875 -16.867188 1.296875 -19.800781 1.296875 -22.6875 C 1.296875 -25.75 1.671875 -28.910156 2.421875 -32.171875 C 3.171875 -35.429688 4.328125 -38.40625 5.890625 -41.09375 C 7.453125 -43.78125 9.441406 -45.972656 11.859375 -47.671875 C 14.285156 -49.378906 17.175781 -50.234375 20.53125 -50.234375 C 23.757812 -50.234375 26.515625 -49.351562 28.796875 -47.59375 C 31.078125 -45.832031 32.910156 -43.632812 34.296875 -41 C 35.679688 -38.375 36.660156 -35.503906 37.234375 -32.390625 C 37.816406 -29.273438 38.019531 -26.332031 37.84375 -23.5625 C 37.675781 -20.5 37.203125 -17.40625 36.421875 -14.28125 C 35.640625 -11.164062 34.5 -8.367188 33 -5.890625 C 31.5 -3.410156 29.59375 -1.390625 27.28125 0.171875 C 24.96875 1.734375 22.222656 2.515625 19.046875 2.515625 Z M 19.921875 -36.640625 C 19.054688 -36.640625 18.289062 -36.175781 17.625 -35.25 C 16.957031 -34.320312 16.40625 -33.191406 15.96875 -31.859375 C 15.539062 -30.535156 15.210938 -29.140625 14.984375 -27.671875 C 14.753906 -26.203125 14.640625 -24.914062 14.640625 -23.8125 C 14.640625 -22.425781 14.769531 -20.925781 15.03125 -19.3125 C 15.289062 -17.695312 15.648438 -16.207031 16.109375 -14.84375 C 16.566406 -13.488281 17.128906 -12.363281 17.796875 -11.46875 C 18.460938 -10.582031 19.226562 -10.140625 20.09375 -10.140625 C 21.019531 -10.140625 21.8125 -10.570312 22.46875 -11.4375 C 23.132812 -12.300781 23.671875 -13.394531 24.078125 -14.71875 C 24.484375 -16.050781 24.769531 -17.507812 24.9375 -19.09375 C 25.113281 -20.6875 25.203125 -22.175781 25.203125 -23.5625 C 25.203125 -24.832031 25.085938 -26.226562 24.859375 -27.75 C 24.628906 -29.28125 24.296875 -30.707031 23.859375 -32.03125 C 23.429688 -33.363281 22.882812 -34.460938 22.21875 -35.328125 C 21.550781 -36.203125 20.785156 -36.640625 19.921875 -36.640625 Z M 19.921875 -36.640625 "/></g></g></g><g fill="rgb(0%, 0%, 0%)" fill-opacity="1"><g transform="translate(204.083974, 100.47503)"><g><path d="M 55.171875 -28.578125 C 55.171875 -27.484375 55.171875 -26 55.171875 -24.125 C 55.171875 -22.25 55.125 -20.210938 55.03125 -18.015625 C 54.945312 -15.816406 54.757812 -13.601562 54.46875 -11.375 C 54.1875 -9.15625 53.738281 -7.148438 53.125 -5.359375 C 52.519531 -3.578125 51.753906 -2.109375 50.828125 -0.953125 C 49.910156 0.203125 48.726562 0.78125 47.28125 0.78125 C 46.019531 0.78125 45.054688 0.25 44.390625 -0.8125 C 43.722656 -1.882812 43.242188 -3.140625 42.953125 -4.578125 C 42.671875 -6.023438 42.515625 -7.5 42.484375 -9 C 42.453125 -10.507812 42.4375 -11.695312 42.4375 -12.5625 C 42.4375 -15.15625 42.519531 -17.691406 42.6875 -20.171875 C 42.863281 -22.660156 42.953125 -25.203125 42.953125 -27.796875 C 42.953125 -28.085938 42.953125 -28.609375 42.953125 -29.359375 C 42.953125 -30.109375 42.894531 -30.859375 42.78125 -31.609375 C 42.664062 -32.359375 42.476562 -33.019531 42.21875 -33.59375 C 41.957031 -34.175781 41.566406 -34.46875 41.046875 -34.46875 C 40.015625 -34.46875 39.179688 -33.929688 38.546875 -32.859375 C 37.910156 -31.796875 37.390625 -30.539062 36.984375 -29.09375 C 36.578125 -27.65625 36.285156 -26.226562 36.109375 -24.8125 C 35.941406 -23.394531 35.828125 -22.34375 35.765625 -21.65625 C 35.648438 -20.90625 35.550781 -19.773438 35.46875 -18.265625 C 35.382812 -16.765625 35.269531 -15.117188 35.125 -13.328125 C 34.976562 -11.546875 34.742188 -9.710938 34.421875 -7.828125 C 34.109375 -5.953125 33.707031 -4.25 33.21875 -2.71875 C 32.726562 -1.195312 32.101562 0.0507812 31.34375 1.03125 C 30.59375 2.019531 29.671875 2.515625 28.578125 2.515625 C 27.191406 2.515625 26.125 1.90625 25.375 0.6875 C 24.625 -0.519531 24.078125 -1.929688 23.734375 -3.546875 C 23.390625 -5.160156 23.171875 -6.804688 23.078125 -8.484375 C 22.992188 -10.160156 22.953125 -11.460938 22.953125 -12.390625 C 22.953125 -13.367188 22.960938 -14.316406 22.984375 -15.234375 C 23.015625 -16.160156 23.03125 -17.113281 23.03125 -18.09375 C 23.03125 -18.5 23.03125 -19.164062 23.03125 -20.09375 C 23.03125 -21.019531 23.015625 -22.046875 22.984375 -23.171875 C 22.960938 -24.296875 22.90625 -25.460938 22.8125 -26.671875 C 22.726562 -27.890625 22.597656 -29.003906 22.421875 -30.015625 C 22.253906 -31.023438 21.992188 -31.847656 21.640625 -32.484375 C 21.296875 -33.117188 20.894531 -33.4375 20.4375 -33.4375 C 19.6875 -33.4375 18.992188 -32.957031 18.359375 -32 C 17.722656 -31.050781 17.171875 -29.925781 16.703125 -28.625 C 16.242188 -27.320312 15.882812 -26.035156 15.625 -24.765625 C 15.375 -23.492188 15.25 -22.570312 15.25 -22 L 15.25 -21.484375 C 15.25 -18.710938 15.421875 -16 15.765625 -13.34375 C 16.109375 -10.6875 16.28125 -7.972656 16.28125 -5.203125 C 16.28125 -3.578125 15.757812 -2.085938 14.71875 -0.734375 C 13.6875 0.617188 12.242188 1.296875 10.390625 1.296875 C 9.066406 1.296875 7.96875 0.789062 7.09375 -0.21875 C 6.226562 -1.226562 5.507812 -2.539062 4.9375 -4.15625 C 4.363281 -5.769531 3.914062 -7.546875 3.59375 -9.484375 C 3.28125 -11.421875 3.0625 -13.328125 2.9375 -15.203125 C 2.820312 -17.078125 2.75 -18.78125 2.71875 -20.3125 C 2.695312 -21.84375 2.6875 -22.984375 2.6875 -23.734375 C 2.6875 -24.597656 2.671875 -25.863281 2.640625 -27.53125 C 2.609375 -29.207031 2.632812 -31.023438 2.71875 -32.984375 C 2.8125 -34.953125 2.972656 -36.960938 3.203125 -39.015625 C 3.429688 -41.066406 3.804688 -42.925781 4.328125 -44.59375 C 4.847656 -46.269531 5.523438 -47.640625 6.359375 -48.703125 C 7.203125 -49.773438 8.285156 -50.3125 9.609375 -50.3125 C 11.109375 -50.3125 12.332031 -49.90625 13.28125 -49.09375 C 14.238281 -48.289062 14.71875 -47.082031 14.71875 -45.46875 C 14.71875 -45.125 14.703125 -44.773438 14.671875 -44.421875 C 14.648438 -44.078125 14.609375 -43.765625 14.546875 -43.484375 C 15.179688 -44.398438 15.960938 -45.332031 16.890625 -46.28125 C 17.816406 -47.238281 18.8125 -48.109375 19.875 -48.890625 C 20.945312 -49.671875 22.085938 -50.304688 23.296875 -50.796875 C 24.503906 -51.285156 25.71875 -51.53125 26.9375 -51.53125 C 28.09375 -51.53125 29.128906 -51.210938 30.046875 -50.578125 C 30.972656 -49.941406 31.78125 -49.144531 32.46875 -48.1875 C 33.164062 -47.238281 33.742188 -46.21875 34.203125 -45.125 C 34.671875 -44.03125 34.988281 -42.988281 35.15625 -42 C 35.738281 -43.039062 36.445312 -44.09375 37.28125 -45.15625 C 38.125 -46.226562 39.035156 -47.164062 40.015625 -47.96875 C 40.992188 -48.78125 42.070312 -49.445312 43.25 -49.96875 C 44.4375 -50.488281 45.664062 -50.75 46.9375 -50.75 C 48.15625 -50.75 49.195312 -50.316406 50.0625 -49.453125 C 50.925781 -48.585938 51.675781 -47.472656 52.3125 -46.109375 C 52.945312 -44.753906 53.4375 -43.222656 53.78125 -41.515625 C 54.125 -39.816406 54.410156 -38.144531 54.640625 -36.5 C 54.878906 -34.851562 55.023438 -33.320312 55.078125 -31.90625 C 55.140625 -30.5 55.171875 -29.390625 55.171875 -28.578125 Z M 55.171875 -28.578125 "/></g></g></g><g fill="rgb(0%, 0%, 0%)" fill-opacity="1"><g transform="translate(262.375167, 100.47503)"><g><path d="M 39.40625 -12.21875 C 39.40625 -11.175781 39.359375 -9.816406 39.265625 -8.140625 C 39.179688 -6.460938 38.9375 -4.828125 38.53125 -3.234375 C 38.132812 -1.648438 37.503906 -0.285156 36.640625 0.859375 C 35.773438 2.015625 34.5625 2.59375 33 2.59375 C 30.863281 2.59375 29.21875 1.898438 28.0625 0.515625 C 26.90625 -0.867188 26.359375 -2.597656 26.421875 -4.671875 C 24.566406 -3.054688 22.46875 -1.785156 20.125 -0.859375 C 17.789062 0.0546875 15.410156 0.515625 12.984375 0.515625 C 11.316406 0.515625 9.726562 0.113281 8.21875 -0.6875 C 6.71875 -1.5 5.390625 -2.539062 4.234375 -3.8125 C 3.085938 -5.082031 2.164062 -6.507812 1.46875 -8.09375 C 0.78125 -9.6875 0.4375 -11.257812 0.4375 -12.8125 C 0.4375 -15.582031 1.285156 -18.007812 2.984375 -20.09375 C 4.691406 -22.175781 6.785156 -23.953125 9.265625 -25.421875 C 11.742188 -26.890625 14.382812 -28.054688 17.1875 -28.921875 C 19.988281 -29.785156 22.488281 -30.363281 24.6875 -30.65625 C 24.6875 -30.945312 24.695312 -31.207031 24.71875 -31.4375 C 24.75 -31.664062 24.765625 -31.925781 24.765625 -32.21875 C 24.765625 -34.007812 24.273438 -35.453125 23.296875 -36.546875 C 22.316406 -37.640625 20.929688 -38.1875 19.140625 -38.1875 C 17.691406 -38.1875 16.445312 -37.941406 15.40625 -37.453125 C 14.375 -36.960938 13.394531 -36.414062 12.46875 -35.8125 C 11.550781 -35.207031 10.628906 -34.660156 9.703125 -34.171875 C 8.773438 -33.679688 7.734375 -33.4375 6.578125 -33.4375 C 5.304688 -33.4375 4.222656 -33.835938 3.328125 -34.640625 C 2.429688 -35.453125 1.984375 -36.492188 1.984375 -37.765625 C 1.984375 -39.671875 2.546875 -41.398438 3.671875 -42.953125 C 4.804688 -44.515625 6.222656 -45.828125 7.921875 -46.890625 C 9.628906 -47.960938 11.476562 -48.800781 13.46875 -49.40625 C 15.457031 -50.007812 17.289062 -50.3125 18.96875 -50.3125 C 20.53125 -50.3125 22.085938 -50.125 23.640625 -49.75 C 25.203125 -49.375 26.675781 -48.796875 28.0625 -48.015625 C 29.445312 -47.242188 30.703125 -46.296875 31.828125 -45.171875 C 32.953125 -44.046875 33.863281 -42.726562 34.5625 -41.21875 C 35.59375 -39.082031 36.425781 -36.816406 37.0625 -34.421875 C 37.695312 -32.023438 38.1875 -29.570312 38.53125 -27.0625 C 38.882812 -24.550781 39.117188 -22.039062 39.234375 -19.53125 C 39.347656 -17.019531 39.40625 -14.582031 39.40625 -12.21875 Z M 25.546875 -14.984375 L 25.296875 -20.875 C 25.171875 -20.875 25.050781 -20.882812 24.9375 -20.90625 C 24.820312 -20.9375 24.707031 -20.953125 24.59375 -20.953125 C 23.84375 -20.953125 22.90625 -20.765625 21.78125 -20.390625 C 20.65625 -20.015625 19.570312 -19.492188 18.53125 -18.828125 C 17.488281 -18.171875 16.609375 -17.4375 15.890625 -16.625 C 15.171875 -15.820312 14.8125 -14.988281 14.8125 -14.125 C 14.8125 -13.3125 15.097656 -12.757812 15.671875 -12.46875 C 16.253906 -12.175781 16.921875 -12.03125 17.671875 -12.03125 C 18.941406 -12.03125 20.296875 -12.363281 21.734375 -13.03125 C 23.179688 -13.695312 24.453125 -14.347656 25.546875 -14.984375 Z M 25.546875 -14.984375 "/></g></g></g><g fill="rgb(0%, 0%, 0%)" fill-opacity="1"><g transform="translate(304.382937, 100.47503)"><g><path d="M 27.96875 -47.640625 C 27.96875 -45.960938 27.40625 -44.71875 26.28125 -43.90625 C 25.15625 -43.101562 23.898438 -42.335938 22.515625 -41.609375 C 21.128906 -40.890625 19.875 -40.039062 18.75 -39.0625 C 17.625 -38.082031 17.0625 -36.609375 17.0625 -34.640625 C 17.0625 -33.597656 17.304688 -32.703125 17.796875 -31.953125 C 18.285156 -31.203125 18.890625 -30.523438 19.609375 -29.921875 C 20.335938 -29.316406 21.132812 -28.695312 22 -28.0625 C 22.863281 -27.425781 23.65625 -26.703125 24.375 -25.890625 C 25.101562 -25.085938 25.710938 -24.109375 26.203125 -22.953125 C 26.691406 -21.796875 26.9375 -20.378906 26.9375 -18.703125 C 26.9375 -16.273438 26.316406 -13.890625 25.078125 -11.546875 C 23.835938 -9.210938 22.25 -7.132812 20.3125 -5.3125 C 18.375 -3.5 16.191406 -2.046875 13.765625 -0.953125 C 11.347656 0.140625 8.953125 0.6875 6.578125 0.6875 C 5.597656 0.6875 4.617188 0.613281 3.640625 0.46875 C 2.660156 0.332031 1.78125 0.0625 1 -0.34375 C 0.21875 -0.75 -0.429688 -1.3125 -0.953125 -2.03125 C -1.472656 -2.757812 -1.734375 -3.695312 -1.734375 -4.84375 C -1.734375 -6.46875 -1.414062 -7.722656 -0.78125 -8.609375 C -0.144531 -9.503906 0.660156 -10.210938 1.640625 -10.734375 C 2.628906 -11.253906 3.6875 -11.660156 4.8125 -11.953125 C 5.9375 -12.242188 6.988281 -12.601562 7.96875 -13.03125 C 8.945312 -13.46875 9.753906 -14.03125 10.390625 -14.71875 C 11.023438 -15.414062 11.34375 -16.398438 11.34375 -17.671875 C 11.34375 -18.878906 10.863281 -20.132812 9.90625 -21.4375 C 8.957031 -22.738281 7.90625 -24.125 6.75 -25.59375 C 5.59375 -27.0625 4.539062 -28.632812 3.59375 -30.3125 C 2.644531 -31.988281 2.171875 -33.835938 2.171875 -35.859375 C 2.171875 -38.335938 2.675781 -40.628906 3.6875 -42.734375 C 4.695312 -44.847656 6.050781 -46.679688 7.75 -48.234375 C 9.457031 -49.796875 11.40625 -51.023438 13.59375 -51.921875 C 15.789062 -52.816406 18.101562 -53.265625 20.53125 -53.265625 C 21.445312 -53.265625 22.351562 -53.175781 23.25 -53 C 24.144531 -52.832031 24.9375 -52.53125 25.625 -52.09375 C 26.320312 -51.664062 26.882812 -51.085938 27.3125 -50.359375 C 27.75 -49.640625 27.96875 -48.734375 27.96875 -47.640625 Z M 27.96875 -47.640625 "/></g></g></g><g fill="rgb(0%, 0%, 0%)" fill-opacity="1"><g transform="translate(89.877666, 188.172228)"><g><path d="M 40.09375 -59.15625 C 40.09375 -57.707031 39.53125 -56.390625 38.40625 -55.203125 C 37.28125 -54.023438 35.921875 -52.988281 34.328125 -52.09375 C 32.742188 -51.195312 31.113281 -50.457031 29.4375 -49.875 C 27.769531 -49.300781 26.390625 -48.898438 25.296875 -48.671875 C 24.828125 -44.222656 24.460938 -39.789062 24.203125 -35.375 C 23.941406 -30.957031 23.8125 -26.523438 23.8125 -22.078125 C 23.8125 -19.710938 23.867188 -17.375 23.984375 -15.0625 C 24.097656 -12.757812 24.15625 -10.453125 24.15625 -8.140625 C 24.15625 -7.097656 24.054688 -5.957031 23.859375 -4.71875 C 23.660156 -3.476562 23.3125 -2.304688 22.8125 -1.203125 C 22.320312 -0.109375 21.644531 0.8125 20.78125 1.5625 C 19.914062 2.3125 18.847656 2.6875 17.578125 2.6875 C 16.078125 2.6875 14.878906 2.265625 13.984375 1.421875 C 13.085938 0.585938 12.394531 -0.429688 11.90625 -1.640625 C 11.414062 -2.859375 11.082031 -4.144531 10.90625 -5.5 C 10.738281 -6.851562 10.65625 -8.082031 10.65625 -9.1875 C 10.539062 -12.644531 10.453125 -16.117188 10.390625 -19.609375 C 10.335938 -23.109375 10.3125 -26.617188 10.3125 -30.140625 C 10.3125 -33.085938 10.320312 -35.972656 10.34375 -38.796875 C 10.375 -41.628906 10.390625 -44.519531 10.390625 -47.46875 C 9.585938 -47.34375 8.765625 -47.25 7.921875 -47.1875 C 7.085938 -47.132812 6.238281 -47.109375 5.375 -47.109375 C 4.675781 -47.109375 3.765625 -47.179688 2.640625 -47.328125 C 1.515625 -47.472656 0.429688 -47.734375 -0.609375 -48.109375 C -1.648438 -48.484375 -2.546875 -49.003906 -3.296875 -49.671875 C -4.046875 -50.335938 -4.421875 -51.1875 -4.421875 -52.21875 C -4.421875 -53.957031 -3.738281 -55.472656 -2.375 -56.765625 C -1.019531 -58.066406 0.707031 -59.191406 2.8125 -60.140625 C 4.914062 -61.097656 7.253906 -61.910156 9.828125 -62.578125 C 12.398438 -63.242188 14.941406 -63.765625 17.453125 -64.140625 C 19.960938 -64.515625 22.269531 -64.785156 24.375 -64.953125 C 26.488281 -65.128906 28.125 -65.21875 29.28125 -65.21875 C 30.375 -65.21875 31.539062 -65.171875 32.78125 -65.078125 C 34.019531 -64.992188 35.1875 -64.75 36.28125 -64.34375 C 37.382812 -63.945312 38.296875 -63.34375 39.015625 -62.53125 C 39.734375 -61.71875 40.09375 -60.59375 40.09375 -59.15625 Z M 40.09375 -59.15625 "/></g></g></g><g fill="rgb(0%, 0%, 0%)" fill-opacity="1"><g transform="translate(122.877584, 188.172228)"><g><path d="M 41.921875 -22.4375 C 41.921875 -21.445312 41.90625 -19.984375 41.875 -18.046875 C 41.84375 -16.117188 41.753906 -14.097656 41.609375 -11.984375 C 41.472656 -9.878906 41.285156 -7.890625 41.046875 -6.015625 C 40.816406 -4.140625 40.53125 -2.769531 40.1875 -1.90625 C 39.726562 -0.8125 39.117188 0.140625 38.359375 0.953125 C 37.609375 1.765625 36.601562 2.171875 35.34375 2.171875 C 33.375 2.171875 31.957031 1.390625 31.09375 -0.171875 C 30.226562 -1.734375 29.648438 -3.664062 29.359375 -5.96875 C 29.066406 -8.28125 28.945312 -10.789062 29 -13.5 C 29.0625 -16.21875 29.035156 -18.734375 28.921875 -21.046875 C 28.804688 -23.359375 28.488281 -25.289062 27.96875 -26.84375 C 27.445312 -28.40625 26.492188 -29.1875 25.109375 -29.1875 C 23.210938 -29.1875 21.757812 -28.882812 20.75 -28.28125 C 19.738281 -27.675781 19.015625 -26.878906 18.578125 -25.890625 C 18.140625 -24.910156 17.878906 -23.785156 17.796875 -22.515625 C 17.710938 -21.242188 17.613281 -19.914062 17.5 -18.53125 C 17.382812 -17.207031 17.296875 -15.414062 17.234375 -13.15625 C 17.179688 -10.90625 16.921875 -8.679688 16.453125 -6.484375 C 15.992188 -4.296875 15.226562 -2.40625 14.15625 -0.8125 C 13.09375 0.769531 11.519531 1.5625 9.4375 1.5625 C 8.164062 1.5625 7.140625 1.066406 6.359375 0.078125 C 5.585938 -0.898438 4.96875 -2.164062 4.5 -3.71875 C 4.039062 -5.28125 3.707031 -7.015625 3.5 -8.921875 C 3.300781 -10.828125 3.1875 -12.6875 3.15625 -14.5 C 3.132812 -16.320312 3.132812 -17.984375 3.15625 -19.484375 C 3.1875 -20.984375 3.203125 -22.109375 3.203125 -22.859375 C 3.203125 -24.015625 3.242188 -25.921875 3.328125 -28.578125 C 3.421875 -31.234375 3.609375 -34.191406 3.890625 -37.453125 C 4.179688 -40.722656 4.554688 -44.085938 5.015625 -47.546875 C 5.484375 -51.015625 6.09375 -54.175781 6.84375 -57.03125 C 7.59375 -59.882812 8.5 -62.207031 9.5625 -64 C 10.632812 -65.789062 11.894531 -66.660156 13.34375 -66.609375 C 14.257812 -66.546875 15.050781 -66.140625 15.71875 -65.390625 C 16.382812 -64.640625 16.929688 -63.671875 17.359375 -62.484375 C 17.796875 -61.304688 18.15625 -60.023438 18.4375 -58.640625 C 18.726562 -57.253906 18.945312 -55.878906 19.09375 -54.515625 C 19.238281 -53.160156 19.328125 -51.90625 19.359375 -50.75 C 19.390625 -49.59375 19.40625 -48.695312 19.40625 -48.0625 C 19.40625 -46.5625 19.375 -45.0625 19.3125 -43.5625 C 19.257812 -42.0625 19.171875 -40.5625 19.046875 -39.0625 C 20.378906 -40.851562 22.15625 -42.320312 24.375 -43.46875 C 26.601562 -44.625 28.84375 -45.203125 31.09375 -45.203125 C 33.976562 -45.203125 36.15625 -44.410156 37.625 -42.828125 C 39.101562 -41.242188 40.160156 -39.28125 40.796875 -36.9375 C 41.429688 -34.601562 41.773438 -32.117188 41.828125 -29.484375 C 41.890625 -26.859375 41.921875 -24.507812 41.921875 -22.4375 Z M 41.921875 -22.4375 "/></g></g></g><g fill="rgb(0%, 0%, 0%)" fill-opacity="1"><g transform="translate(168.349912, 188.172228)"><g><path d="M 40.53125 -24.765625 C 40.53125 -21.585938 40.210938 -18.441406 39.578125 -15.328125 C 38.941406 -12.210938 37.875 -9.425781 36.375 -6.96875 C 34.875 -4.519531 32.867188 -2.539062 30.359375 -1.03125 C 27.847656 0.46875 24.710938 1.21875 20.953125 1.21875 C 17.265625 1.21875 14.175781 0.484375 11.6875 -0.984375 C 9.207031 -2.460938 7.226562 -4.414062 5.75 -6.84375 C 4.28125 -9.269531 3.242188 -12.007812 2.640625 -15.0625 C 2.035156 -18.125 1.734375 -21.242188 1.734375 -24.421875 C 1.734375 -27.890625 2.132812 -31.328125 2.9375 -34.734375 C 3.113281 -35.648438 3.445312 -36.929688 3.9375 -38.578125 C 4.425781 -40.222656 5.0625 -41.835938 5.84375 -43.421875 C 6.625 -45.015625 7.519531 -46.390625 8.53125 -47.546875 C 9.539062 -48.703125 10.648438 -49.28125 11.859375 -49.28125 C 13.015625 -49.28125 13.9375 -48.960938 14.625 -48.328125 C 15.320312 -47.691406 15.875 -46.894531 16.28125 -45.9375 C 16.6875 -44.988281 16.945312 -43.976562 17.0625 -42.90625 C 17.175781 -41.84375 17.234375 -40.878906 17.234375 -40.015625 C 17.234375 -38.679688 17.128906 -37.378906 16.921875 -36.109375 C 16.722656 -34.835938 16.507812 -33.570312 16.28125 -32.3125 C 16.050781 -30.570312 15.832031 -28.835938 15.625 -27.109375 C 15.425781 -25.378906 15.328125 -23.644531 15.328125 -21.90625 C 15.328125 -21.039062 15.367188 -20.070312 15.453125 -19 C 15.546875 -17.9375 15.765625 -16.914062 16.109375 -15.9375 C 16.453125 -14.957031 16.941406 -14.132812 17.578125 -13.46875 C 18.210938 -12.800781 19.109375 -12.46875 20.265625 -12.46875 C 21.765625 -12.46875 22.960938 -12.867188 23.859375 -13.671875 C 24.753906 -14.484375 25.414062 -15.492188 25.84375 -16.703125 C 26.28125 -17.921875 26.554688 -19.222656 26.671875 -20.609375 C 26.785156 -21.992188 26.84375 -23.265625 26.84375 -24.421875 C 26.84375 -26.960938 26.671875 -29.457031 26.328125 -31.90625 C 25.984375 -34.363281 25.664062 -36.863281 25.375 -39.40625 C 25.320312 -39.695312 25.296875 -40.101562 25.296875 -40.625 C 25.296875 -41.488281 25.4375 -42.351562 25.71875 -43.21875 C 26.007812 -44.082031 26.414062 -44.859375 26.9375 -45.546875 C 27.457031 -46.242188 28.09375 -46.804688 28.84375 -47.234375 C 29.59375 -47.671875 30.429688 -47.890625 31.359375 -47.890625 C 32.628906 -47.890625 33.753906 -47.441406 34.734375 -46.546875 C 35.710938 -45.648438 36.53125 -44.492188 37.1875 -43.078125 C 37.851562 -41.671875 38.40625 -40.085938 38.84375 -38.328125 C 39.28125 -36.566406 39.625 -34.832031 39.875 -33.125 C 40.132812 -31.425781 40.304688 -29.820312 40.390625 -28.3125 C 40.484375 -26.8125 40.53125 -25.628906 40.53125 -24.765625 Z M 40.53125 -24.765625 "/></g></g></g><g fill="rgb(0%, 0%, 0%)" fill-opacity="1"><g transform="translate(211.570276, 188.172228)"><g><path d="M 32.65625 -32.390625 C 31.84375 -32.335938 31.144531 -32.410156 30.5625 -32.609375 C 29.988281 -32.804688 29.414062 -33.023438 28.84375 -33.265625 C 28.320312 -33.492188 27.800781 -33.707031 27.28125 -33.90625 C 26.757812 -34.101562 26.179688 -34.175781 25.546875 -34.125 C 24.390625 -34.0625 23.363281 -33.742188 22.46875 -33.171875 C 21.570312 -32.597656 20.765625 -31.875 20.046875 -31 C 19.328125 -30.132812 18.707031 -29.164062 18.1875 -28.09375 C 17.664062 -27.03125 17.257812 -25.976562 16.96875 -24.9375 C 16.800781 -24.25 16.671875 -23.195312 16.578125 -21.78125 C 16.492188 -20.363281 16.453125 -18.847656 16.453125 -17.234375 C 16.398438 -15.554688 16.375 -13.96875 16.375 -12.46875 C 16.375 -10.96875 16.316406 -9.785156 16.203125 -8.921875 C 16.140625 -7.992188 15.992188 -6.910156 15.765625 -5.671875 C 15.535156 -4.429688 15.171875 -3.257812 14.671875 -2.15625 C 14.179688 -1.0625 13.53125 -0.140625 12.71875 0.609375 C 11.914062 1.359375 10.878906 1.734375 9.609375 1.734375 C 8.628906 1.734375 7.773438 1.441406 7.046875 0.859375 C 6.328125 0.285156 5.722656 -0.472656 5.234375 -1.421875 C 4.742188 -2.378906 4.335938 -3.492188 4.015625 -4.765625 C 3.703125 -6.035156 3.460938 -7.332031 3.296875 -8.65625 C 3.117188 -10.039062 2.984375 -11.425781 2.890625 -12.8125 C 2.804688 -14.195312 2.75 -15.507812 2.71875 -16.75 C 2.695312 -18 2.695312 -19.140625 2.71875 -20.171875 C 2.75 -21.210938 2.765625 -22.050781 2.765625 -22.6875 C 2.710938 -24.707031 2.613281 -26.742188 2.46875 -28.796875 C 2.320312 -30.847656 2.25 -32.882812 2.25 -34.90625 C 2.25 -36.175781 2.304688 -37.585938 2.421875 -39.140625 C 2.535156 -40.703125 2.851562 -42.160156 3.375 -43.515625 C 3.894531 -44.878906 4.660156 -46.019531 5.671875 -46.9375 C 6.679688 -47.863281 8.082031 -48.328125 9.875 -48.328125 C 10.851562 -48.328125 11.6875 -48.007812 12.375 -47.375 C 13.070312 -46.738281 13.632812 -45.957031 14.0625 -45.03125 C 14.5 -44.113281 14.832031 -43.132812 15.0625 -42.09375 C 15.300781 -41.050781 15.445312 -40.097656 15.5 -39.234375 C 16.882812 -41.484375 18.441406 -43.316406 20.171875 -44.734375 C 21.910156 -46.148438 24.164062 -46.914062 26.9375 -47.03125 C 28.320312 -47.082031 29.691406 -46.945312 31.046875 -46.625 C 32.398438 -46.3125 33.640625 -45.796875 34.765625 -45.078125 C 35.898438 -44.359375 36.828125 -43.421875 37.546875 -42.265625 C 38.265625 -41.109375 38.65625 -39.75 38.71875 -38.1875 C 38.832031 -36.34375 38.28125 -34.929688 37.0625 -33.953125 C 35.851562 -32.972656 34.382812 -32.453125 32.65625 -32.390625 Z M 32.65625 -32.390625 "/></g></g></g><g fill="rgb(0%, 0%, 0%)" fill-opacity="1"><g transform="translate(248.987506, 188.172228)"><g><path d="M 41.484375 -8.140625 C 41.484375 -6.984375 41.003906 -5.972656 40.046875 -5.109375 C 39.097656 -4.242188 37.882812 -3.460938 36.40625 -2.765625 C 34.9375 -2.078125 33.265625 -1.5 31.390625 -1.03125 C 29.515625 -0.570312 27.664062 -0.203125 25.84375 0.078125 C 24.03125 0.367188 22.316406 0.585938 20.703125 0.734375 C 19.085938 0.878906 17.785156 0.953125 16.796875 0.953125 C 15.816406 0.953125 14.445312 0.921875 12.6875 0.859375 C 10.925781 0.804688 9.175781 0.59375 7.4375 0.21875 C 5.707031 -0.15625 4.207031 -0.757812 2.9375 -1.59375 C 1.675781 -2.4375 1.046875 -3.609375 1.046875 -5.109375 C 1.046875 -6.265625 1.445312 -7.675781 2.25 -9.34375 C 3.0625 -11.019531 4.101562 -12.835938 5.375 -14.796875 C 6.644531 -16.765625 8.054688 -18.773438 9.609375 -20.828125 C 11.171875 -22.878906 12.703125 -24.859375 14.203125 -26.765625 C 15.703125 -28.671875 17.113281 -30.414062 18.4375 -32 C 19.769531 -33.59375 20.8125 -34.90625 21.5625 -35.9375 C 20.757812 -35.769531 19.734375 -35.523438 18.484375 -35.203125 C 17.242188 -34.890625 15.957031 -34.585938 14.625 -34.296875 C 13.300781 -34.003906 12.019531 -33.757812 10.78125 -33.5625 C 9.539062 -33.363281 8.488281 -33.265625 7.625 -33.265625 C 6.925781 -33.265625 6.144531 -33.390625 5.28125 -33.640625 C 4.414062 -33.898438 3.59375 -34.257812 2.8125 -34.71875 C 2.03125 -35.1875 1.363281 -35.738281 0.8125 -36.375 C 0.269531 -37.007812 0 -37.734375 0 -38.546875 C 0 -39.578125 0.457031 -40.539062 1.375 -41.4375 C 2.300781 -42.332031 3.515625 -43.140625 5.015625 -43.859375 C 6.523438 -44.585938 8.203125 -45.222656 10.046875 -45.765625 C 11.890625 -46.316406 13.707031 -46.78125 15.5 -47.15625 C 17.289062 -47.53125 18.992188 -47.800781 20.609375 -47.96875 C 22.222656 -48.144531 23.523438 -48.234375 24.515625 -48.234375 C 25.609375 -48.234375 26.929688 -48.117188 28.484375 -47.890625 C 30.046875 -47.660156 31.5625 -47.253906 33.03125 -46.671875 C 34.507812 -46.097656 35.769531 -45.320312 36.8125 -44.34375 C 37.851562 -43.363281 38.375 -42.125 38.375 -40.625 C 38.375 -40.15625 38.328125 -39.734375 38.234375 -39.359375 C 38.148438 -38.984375 38.050781 -38.566406 37.9375 -38.109375 C 37.820312 -37.703125 37.316406 -36.789062 36.421875 -35.375 C 35.523438 -33.96875 34.425781 -32.296875 33.125 -30.359375 C 31.820312 -28.421875 30.40625 -26.335938 28.875 -24.109375 C 27.351562 -21.890625 25.898438 -19.796875 24.515625 -17.828125 C 23.128906 -15.867188 21.914062 -14.140625 20.875 -12.640625 C 19.832031 -11.140625 19.140625 -10.128906 18.796875 -9.609375 C 21.160156 -10.242188 23.566406 -10.773438 26.015625 -11.203125 C 28.472656 -11.640625 30.914062 -11.859375 33.34375 -11.859375 C 33.914062 -11.859375 34.664062 -11.828125 35.59375 -11.765625 C 36.519531 -11.710938 37.414062 -11.554688 38.28125 -11.296875 C 39.144531 -11.035156 39.894531 -10.660156 40.53125 -10.171875 C 41.164062 -9.679688 41.484375 -9.003906 41.484375 -8.140625 Z M 41.484375 -8.140625 "/></g></g></g><g fill="rgb(0%, 0%, 0%)" fill-opacity="1"><g transform="translate(289.609453, 188.172228)"><g><path d="M 19.046875 2.515625 C 16.109375 2.515625 13.539062 1.734375 11.34375 0.171875 C 9.144531 -1.390625 7.296875 -3.378906 5.796875 -5.796875 C 4.296875 -8.222656 3.171875 -10.921875 2.421875 -13.890625 C 1.671875 -16.867188 1.296875 -19.800781 1.296875 -22.6875 C 1.296875 -25.75 1.671875 -28.910156 2.421875 -32.171875 C 3.171875 -35.429688 4.328125 -38.40625 5.890625 -41.09375 C 7.453125 -43.78125 9.441406 -45.972656 11.859375 -47.671875 C 14.285156 -49.378906 17.175781 -50.234375 20.53125 -50.234375 C 23.757812 -50.234375 26.515625 -49.351562 28.796875 -47.59375 C 31.078125 -45.832031 32.910156 -43.632812 34.296875 -41 C 35.679688 -38.375 36.660156 -35.503906 37.234375 -32.390625 C 37.816406 -29.273438 38.019531 -26.332031 37.84375 -23.5625 C 37.675781 -20.5 37.203125 -17.40625 36.421875 -14.28125 C 35.640625 -11.164062 34.5 -8.367188 33 -5.890625 C 31.5 -3.410156 29.59375 -1.390625 27.28125 0.171875 C 24.96875 1.734375 22.222656 2.515625 19.046875 2.515625 Z M 19.921875 -36.640625 C 19.054688 -36.640625 18.289062 -36.175781 17.625 -35.25 C 16.957031 -34.320312 16.40625 -33.191406 15.96875 -31.859375 C 15.539062 -30.535156 15.210938 -29.140625 14.984375 -27.671875 C 14.753906 -26.203125 14.640625 -24.914062 14.640625 -23.8125 C 14.640625 -22.425781 14.769531 -20.925781 15.03125 -19.3125 C 15.289062 -17.695312 15.648438 -16.207031 16.109375 -14.84375 C 16.566406 -13.488281 17.128906 -12.363281 17.796875 -11.46875 C 18.460938 -10.582031 19.226562 -10.140625 20.09375 -10.140625 C 21.019531 -10.140625 21.8125 -10.570312 22.46875 -11.4375 C 23.132812 -12.300781 23.671875 -13.394531 24.078125 -14.71875 C 24.484375 -16.050781 24.769531 -17.507812 24.9375 -19.09375 C 25.113281 -20.6875 25.203125 -22.175781 25.203125 -23.5625 C 25.203125 -24.832031 25.085938 -26.226562 24.859375 -27.75 C 24.628906 -29.28125 24.296875 -30.707031 23.859375 -32.03125 C 23.429688 -33.363281 22.882812 -34.460938 22.21875 -35.328125 C 21.550781 -36.203125 20.785156 -36.640625 19.921875 -36.640625 Z M 19.921875 -36.640625 "/></g></g></g><g fill="rgb(0%, 0%, 0%)" fill-opacity="1"><g transform="translate(41.541692, 243.722288)"><g><path d="M 10.578125 -16.25 L 10.578125 -13 L 4.890625 -13 L 4.890625 -9.765625 L 10.140625 -9.765625 L 10.140625 -6.515625 L 4.890625 -6.515625 L 4.890625 0 L 1.1875 0 L 1.1875 -16.25 Z M 10.578125 -16.25 "/></g></g></g><g fill="rgb(0%, 0%, 0%)" fill-opacity="1"><g transform="translate(56.304648, 243.722288)"><g><path d="M 13.671875 -16.25 L 13.671875 -5.765625 C 13.671875 -3.773438 13.128906 -2.265625 12.046875 -1.234375 C 10.972656 -0.210938 9.398438 0.296875 7.328125 0.296875 C 5.253906 0.296875 3.675781 -0.210938 2.59375 -1.234375 C 1.519531 -2.265625 0.984375 -3.773438 0.984375 -5.765625 L 0.984375 -16.25 L 4.6875 -16.25 L 4.6875 -6.859375 C 4.6875 -5.546875 4.894531 -4.628906 5.3125 -4.109375 C 5.726562 -3.597656 6.398438 -3.34375 7.328125 -3.34375 C 8.265625 -3.34375 8.9375 -3.597656 9.34375 -4.109375 C 9.757812 -4.628906 9.96875 -5.546875 9.96875 -6.859375 L 9.96875 -16.25 Z M 13.671875 -16.25 "/></g></g></g><g fill="rgb(0%, 0%, 0%)" fill-opacity="1"><g transform="translate(74.556315, 243.722288)"><g><path d="M 4.890625 -16.25 L 4.890625 -3.25 L 10.484375 -3.25 L 10.484375 0 L 1.1875 0 L 1.1875 -16.25 Z M 4.890625 -16.25 "/></g></g></g><g fill="rgb(0%, 0%, 0%)" fill-opacity="1"><g transform="translate(89.279852, 243.722288)"><g><path d="M 4.890625 -16.25 L 4.890625 -3.25 L 10.484375 -3.25 L 10.484375 0 L 1.1875 0 L 1.1875 -16.25 Z M 4.890625 -16.25 "/></g></g></g><g fill="rgb(0%, 0%, 0%)" fill-opacity="1"><g transform="translate(104.003389, 243.722288)"><g/></g></g><g fill="rgb(0%, 0%, 0%)" fill-opacity="1"><g transform="translate(112.971539, 243.722288)"><g><path d="M 7.171875 -16.546875 C 8.046875 -16.546875 8.90625 -16.414062 9.75 -16.15625 C 10.59375 -15.90625 11.21875 -15.65625 11.625 -15.40625 L 12.21875 -15.015625 L 10.71875 -12.0625 C 10.601562 -12.132812 10.4375 -12.234375 10.21875 -12.359375 C 10.007812 -12.484375 9.613281 -12.648438 9.03125 -12.859375 C 8.457031 -13.078125 7.921875 -13.1875 7.421875 -13.1875 C 6.804688 -13.1875 6.332031 -13.050781 6 -12.78125 C 5.664062 -12.519531 5.5 -12.164062 5.5 -11.71875 C 5.5 -11.5 5.578125 -11.289062 5.734375 -11.09375 C 5.890625 -10.90625 6.15625 -10.703125 6.53125 -10.484375 C 6.914062 -10.273438 7.253906 -10.101562 7.546875 -9.96875 C 7.835938 -9.832031 8.285156 -9.632812 8.890625 -9.375 C 9.941406 -8.925781 10.835938 -8.316406 11.578125 -7.546875 C 12.316406 -6.785156 12.6875 -5.921875 12.6875 -4.953125 C 12.6875 -4.015625 12.519531 -3.195312 12.1875 -2.5 C 11.851562 -1.800781 11.394531 -1.253906 10.8125 -0.859375 C 10.226562 -0.472656 9.578125 -0.1875 8.859375 0 C 8.148438 0.195312 7.382812 0.296875 6.5625 0.296875 C 5.851562 0.296875 5.15625 0.222656 4.46875 0.078125 C 3.789062 -0.0664062 3.21875 -0.242188 2.75 -0.453125 C 2.289062 -0.671875 1.878906 -0.882812 1.515625 -1.09375 C 1.148438 -1.3125 0.878906 -1.492188 0.703125 -1.640625 L 0.453125 -1.859375 L 2.3125 -4.96875 C 2.46875 -4.832031 2.679688 -4.660156 2.953125 -4.453125 C 3.234375 -4.253906 3.722656 -3.984375 4.421875 -3.640625 C 5.128906 -3.296875 5.75 -3.125 6.28125 -3.125 C 7.84375 -3.125 8.625 -3.660156 8.625 -4.734375 C 8.625 -4.953125 8.566406 -5.15625 8.453125 -5.34375 C 8.347656 -5.539062 8.15625 -5.734375 7.875 -5.921875 C 7.59375 -6.109375 7.34375 -6.257812 7.125 -6.375 C 6.90625 -6.488281 6.546875 -6.660156 6.046875 -6.890625 C 5.554688 -7.117188 5.195312 -7.289062 4.96875 -7.40625 C 3.976562 -7.894531 3.210938 -8.503906 2.671875 -9.234375 C 2.140625 -9.960938 1.875 -10.742188 1.875 -11.578125 C 1.875 -13.035156 2.410156 -14.226562 3.484375 -15.15625 C 4.566406 -16.082031 5.796875 -16.546875 7.171875 -16.546875 Z M 7.171875 -16.546875 "/></g></g></g><g fill="rgb(0%, 0%, 0%)" fill-opacity="1"><g transform="translate(129.804076, 243.722288)"><g><path d="M 0.15625 -13 L 0.15625 -16.25 L 11.578125 -16.25 L 11.578125 -13 L 7.71875 -13 L 7.71875 0 L 4.015625 0 L 4.015625 -13 Z M 0.15625 -13 "/></g></g></g><g fill="rgb(0%, 0%, 0%)" fill-opacity="1"><g transform="translate(145.138631, 243.722288)"><g><path d="M 9.4375 -16.25 L 16 0 L 12.015625 0 L 10.8125 -3.25 L 4.625 -3.25 L 3.421875 0 L -0.546875 0 L 6.015625 -16.25 Z M 9.5625 -6.5 L 7.75 -11.234375 L 7.703125 -11.234375 L 5.890625 -6.5 Z M 9.5625 -6.5 "/></g></g></g><g fill="rgb(0%, 0%, 0%)" fill-opacity="1"><g transform="translate(164.17871, 243.722288)"><g><path d="M 9.828125 -3.34375 C 10.390625 -3.34375 10.9375 -3.425781 11.46875 -3.59375 C 12.007812 -3.769531 12.40625 -3.9375 12.65625 -4.09375 L 13.03125 -4.359375 L 14.59375 -1.203125 C 14.539062 -1.160156 14.46875 -1.109375 14.375 -1.046875 C 14.289062 -0.984375 14.078125 -0.859375 13.734375 -0.671875 C 13.398438 -0.492188 13.039062 -0.335938 12.65625 -0.203125 C 12.28125 -0.078125 11.785156 0.0351562 11.171875 0.140625 C 10.554688 0.242188 9.921875 0.296875 9.265625 0.296875 C 7.753906 0.296875 6.320312 -0.0703125 4.96875 -0.8125 C 3.613281 -1.5625 2.519531 -2.582031 1.6875 -3.875 C 0.863281 -5.175781 0.453125 -6.582031 0.453125 -8.09375 C 0.453125 -9.238281 0.691406 -10.335938 1.171875 -11.390625 C 1.660156 -12.441406 2.304688 -13.335938 3.109375 -14.078125 C 3.921875 -14.828125 4.863281 -15.425781 5.9375 -15.875 C 7.019531 -16.320312 8.128906 -16.546875 9.265625 -16.546875 C 10.316406 -16.546875 11.285156 -16.421875 12.171875 -16.171875 C 13.054688 -15.921875 13.679688 -15.671875 14.046875 -15.421875 L 14.59375 -15.046875 L 13.03125 -11.90625 C 12.9375 -11.976562 12.796875 -12.070312 12.609375 -12.1875 C 12.421875 -12.300781 12.050781 -12.445312 11.5 -12.625 C 10.945312 -12.8125 10.390625 -12.90625 9.828125 -12.90625 C 8.929688 -12.90625 8.128906 -12.757812 7.421875 -12.46875 C 6.710938 -12.175781 6.148438 -11.796875 5.734375 -11.328125 C 5.328125 -10.859375 5.015625 -10.347656 4.796875 -9.796875 C 4.578125 -9.253906 4.46875 -8.703125 4.46875 -8.140625 C 4.46875 -6.898438 4.929688 -5.789062 5.859375 -4.8125 C 6.785156 -3.832031 8.109375 -3.34375 9.828125 -3.34375 Z M 9.828125 -3.34375 "/></g></g></g><g fill="rgb(0%, 0%, 0%)" fill-opacity="1"><g transform="translate(182.607777, 243.722288)"><g><path d="M 15.984375 0 L 10.875 0 L 4.890625 -6.890625 L 4.890625 0 L 1.1875 0 L 1.1875 -16.25 L 4.890625 -16.25 L 4.890625 -9.609375 L 10.46875 -16.25 L 14.953125 -16.25 L 8.40625 -8.546875 Z M 15.984375 0 "/></g></g></g><g fill="rgb(0%, 0%, 0%)" fill-opacity="1"><g transform="translate(201.706984, 243.722288)"><g/></g></g><g fill="rgb(0%, 0%, 0%)" fill-opacity="1"><g transform="translate(210.67514, 243.722288)"><g><path d="M 10.484375 -16.25 L 10.484375 -13 L 4.890625 -13 L 4.890625 -9.765625 L 10.25 -9.765625 L 10.25 -6.515625 L 4.890625 -6.515625 L 4.890625 -3.25 L 10.484375 -3.25 L 10.484375 0 L 1.1875 0 L 1.1875 -16.25 Z M 10.484375 -16.25 "/></g></g></g><g fill="rgb(0%, 0%, 0%)" fill-opacity="1"><g transform="translate(225.694333, 243.722288)"><g><path d="M 4.890625 -10.09375 L 4.890625 0 L 1.1875 0 L 1.1875 -16.25 L 4.890625 -16.25 L 11.34375 -6.171875 L 11.390625 -6.171875 L 11.390625 -16.25 L 15.09375 -16.25 L 15.09375 0 L 11.390625 0 L 4.921875 -10.09375 Z M 4.890625 -10.09375 "/></g></g></g><g fill="rgb(0%, 0%, 0%)" fill-opacity="1"><g transform="translate(245.562249, 243.722288)"><g><path d="M 0.15625 -13 L 0.15625 -16.25 L 11.578125 -16.25 L 11.578125 -13 L 7.71875 -13 L 7.71875 0 L 4.015625 0 L 4.015625 -13 Z M 0.15625 -13 "/></g></g></g><g fill="rgb(0%, 0%, 0%)" fill-opacity="1"><g transform="translate(260.896813, 243.722288)"><g><path d="M 13.65625 0 L 11.046875 -9.125 L 8.453125 0 L 4.328125 0 L -0.296875 -16.25 L 3.828125 -16.25 L 6.59375 -5.109375 L 6.703125 -5.109375 L 9.65625 -16.25 L 12.453125 -16.25 L 15.40625 -5.109375 L 15.5 -5.109375 L 18.28125 -16.25 L 22.375 -16.25 L 17.75 0 Z M 13.65625 0 "/></g></g></g><g fill="rgb(0%, 0%, 0%)" fill-opacity="1"><g transform="translate(286.579234, 243.722288)"><g><path d="M 4.890625 -16.25 L 4.890625 0 L 1.1875 0 L 1.1875 -16.25 Z M 4.890625 -16.25 "/></g></g></g><g fill="rgb(0%, 0%, 0%)" fill-opacity="1"><g transform="translate(296.23724, 243.722288)"><g><path d="M 9.828125 -3.34375 C 10.390625 -3.34375 10.9375 -3.425781 11.46875 -3.59375 C 12.007812 -3.769531 12.40625 -3.9375 12.65625 -4.09375 L 13.03125 -4.359375 L 14.59375 -1.203125 C 14.539062 -1.160156 14.46875 -1.109375 14.375 -1.046875 C 14.289062 -0.984375 14.078125 -0.859375 13.734375 -0.671875 C 13.398438 -0.492188 13.039062 -0.335938 12.65625 -0.203125 C 12.28125 -0.078125 11.785156 0.0351562 11.171875 0.140625 C 10.554688 0.242188 9.921875 0.296875 9.265625 0.296875 C 7.753906 0.296875 6.320312 -0.0703125 4.96875 -0.8125 C 3.613281 -1.5625 2.519531 -2.582031 1.6875 -3.875 C 0.863281 -5.175781 0.453125 -6.582031 0.453125 -8.09375 C 0.453125 -9.238281 0.691406 -10.335938 1.171875 -11.390625 C 1.660156 -12.441406 2.304688 -13.335938 3.109375 -14.078125 C 3.921875 -14.828125 4.863281 -15.425781 5.9375 -15.875 C 7.019531 -16.320312 8.128906 -16.546875 9.265625 -16.546875 C 10.316406 -16.546875 11.285156 -16.421875 12.171875 -16.171875 C 13.054688 -15.921875 13.679688 -15.671875 14.046875 -15.421875 L 14.59375 -15.046875 L 13.03125 -11.90625 C 12.9375 -11.976562 12.796875 -12.070312 12.609375 -12.1875 C 12.421875 -12.300781 12.050781 -12.445312 11.5 -12.625 C 10.945312 -12.8125 10.390625 -12.90625 9.828125 -12.90625 C 8.929688 -12.90625 8.128906 -12.757812 7.421875 -12.46875 C 6.710938 -12.175781 6.148438 -11.796875 5.734375 -11.328125 C 5.328125 -10.859375 5.015625 -10.347656 4.796875 -9.796875 C 4.578125 -9.253906 4.46875 -8.703125 4.46875 -8.140625 C 4.46875 -6.898438 4.929688 -5.789062 5.859375 -4.8125 C 6.785156 -3.832031 8.109375 -3.34375 9.828125 -3.34375 Z M 9.828125 -3.34375 "/></g></g></g><g fill="rgb(0%, 0%, 0%)" fill-opacity="1"><g transform="translate(314.666307, 243.722288)"><g><path d="M 15.984375 0 L 10.875 0 L 4.890625 -6.890625 L 4.890625 0 L 1.1875 0 L 1.1875 -16.25 L 4.890625 -16.25 L 4.890625 -9.609375 L 10.46875 -16.25 L 14.953125 -16.25 L 8.40625 -8.546875 Z M 15.984375 0 "/></g></g></g><g fill="rgb(0%, 0%, 0%)" fill-opacity="1"><g transform="translate(333.765515, 243.722288)"><g><path d="M 4.890625 -16.25 L 4.890625 -3.25 L 10.484375 -3.25 L 10.484375 0 L 1.1875 0 L 1.1875 -16.25 Z M 4.890625 -16.25 "/></g></g></g><g fill="rgb(0%, 0%, 0%)" fill-opacity="1"><g transform="translate(348.489047, 243.722288)"><g><path d="M 10.484375 -16.25 L 10.484375 -13 L 4.890625 -13 L 4.890625 -9.765625 L 10.25 -9.765625 L 10.25 -6.515625 L 4.890625 -6.515625 L 4.890625 -3.25 L 10.484375 -3.25 L 10.484375 0 L 1.1875 0 L 1.1875 -16.25 Z M 10.484375 -16.25 "/></g></g></g><g fill="rgb(0%, 0%, 0%)" fill-opacity="1"><g transform="translate(363.50824, 243.722288)"><g><path d="M 1.1875 -16.25 L 7 -16.25 C 8.5625 -16.25 9.832031 -15.832031 10.8125 -15 C 11.800781 -14.164062 12.296875 -12.972656 12.296875 -11.421875 C 12.296875 -10.234375 11.992188 -9.234375 11.390625 -8.421875 C 10.796875 -7.617188 9.988281 -7.050781 8.96875 -6.71875 L 14.5625 0 L 9.859375 0 L 4.890625 -6.421875 L 4.890625 0 L 1.1875 0 Z M 4.890625 -9.046875 L 5.3125 -9.046875 C 5.65625 -9.046875 5.945312 -9.050781 6.1875 -9.0625 C 6.425781 -9.070312 6.695312 -9.113281 7 -9.1875 C 7.300781 -9.269531 7.539062 -9.382812 7.71875 -9.53125 C 7.90625 -9.675781 8.0625 -9.882812 8.1875 -10.15625 C 8.320312 -10.4375 8.390625 -10.773438 8.390625 -11.171875 C 8.390625 -11.566406 8.320312 -11.898438 8.1875 -12.171875 C 8.0625 -12.453125 7.90625 -12.664062 7.71875 -12.8125 C 7.539062 -12.957031 7.300781 -13.066406 7 -13.140625 C 6.695312 -13.222656 6.425781 -13.269531 6.1875 -13.28125 C 5.945312 -13.289062 5.65625 -13.296875 5.3125 -13.296875 L 4.890625 -13.296875 Z M 4.890625 -9.046875 "/></g></g></g></svg>