<svg xmlns="http://www.w3.org/2000/svg" xmlns:xlink="http://www.w3.org/1999/xlink" width="500" zoomAndPan="magnify" viewBox="0 0 375 374.999991" height="500" preserveAspectRatio="xMidYMid meet" version="1.0"><defs><g><g id="id1"/><g id="id2"/></g></defs><rect x="-37.5" width="450" fill="rgb(32.159424%, 44.309998%, 100%)" y="-37.499999" height="449.999989" fill-opacity="1"/><g fill="rgb(100%, 100%, 100%)" fill-opacity="1"><g transform="translate(148.152088, 174.56555)"><g><path d="M 1.296875 -32.578125 C 2.015625 -32.578125 2.789062 -32.648438 3.625 -32.796875 C 4.457031 -32.941406 5.21875 -33.1875 5.90625 -33.53125 C 6.59375 -33.875 7.160156 -34.34375 7.609375 -34.9375 C 8.066406 -35.539062 8.296875 -36.316406 8.296875 -37.265625 L 20.015625 -37.265625 L 20.015625 -12.125 C 20.015625 -10.988281 20.285156 -10.25 20.828125 -9.90625 C 21.378906 -9.5625 22.085938 -9.390625 22.953125 -9.390625 L 24.671875 -9.390625 L 24.671875 0 L 1.828125 0 L 1.828125 -9.390625 L 3.84375 -9.390625 C 4.738281 -9.390625 5.398438 -9.671875 5.828125 -10.234375 C 6.265625 -10.796875 6.484375 -11.40625 6.484375 -12.0625 L 6.484375 -24.234375 L 1.296875 -24.234375 Z M 1.296875 -32.578125 "/></g></g></g><g fill="rgb(100%, 100%, 100%)" fill-opacity="1"><g transform="translate(173.085449, 174.56555)"><g><path d="M 1.140625 -18.34375 C 1.140625 -21.445312 1.609375 -24.207031 2.546875 -26.625 C 3.484375 -29.039062 4.773438 -31.070312 6.421875 -32.71875 C 8.078125 -34.363281 10.054688 -35.613281 12.359375 -36.46875 C 14.660156 -37.332031 17.171875 -37.765625 19.890625 -37.765625 C 22.617188 -37.765625 25.132812 -37.332031 27.4375 -36.46875 C 29.738281 -35.613281 31.710938 -34.363281 33.359375 -32.71875 C 35.015625 -31.070312 36.3125 -29.039062 37.25 -26.625 C 38.1875 -24.207031 38.65625 -21.445312 38.65625 -18.34375 C 38.65625 -15.238281 38.1875 -12.472656 37.25 -10.046875 C 36.3125 -7.628906 35.015625 -5.597656 33.359375 -3.953125 C 31.710938 -2.316406 29.738281 -1.066406 27.4375 -0.203125 C 25.132812 0.660156 22.617188 1.09375 19.890625 1.09375 C 17.171875 1.09375 14.660156 0.660156 12.359375 -0.203125 C 10.054688 -1.066406 8.078125 -2.316406 6.421875 -3.953125 C 4.773438 -5.597656 3.484375 -7.628906 2.546875 -10.046875 C 1.609375 -12.472656 1.140625 -15.238281 1.140625 -18.34375 Z M 15.765625 -18.34375 C 15.765625 -14.289062 16.035156 -11.382812 16.578125 -9.625 C 17.128906 -7.863281 18.234375 -6.984375 19.890625 -6.984375 C 21.554688 -6.984375 22.660156 -7.863281 23.203125 -9.625 C 23.753906 -11.382812 24.03125 -14.289062 24.03125 -18.34375 C 24.03125 -22.382812 23.753906 -25.285156 23.203125 -27.046875 C 22.660156 -28.816406 21.554688 -29.703125 19.890625 -29.703125 C 18.234375 -29.703125 17.128906 -28.816406 16.578125 -27.046875 C 16.035156 -25.285156 15.765625 -22.382812 15.765625 -18.34375 Z M 15.765625 -18.34375 "/></g></g></g><g fill="rgb(100%, 100%, 100%)" fill-opacity="1"><g transform="translate(212.363782, 174.56555)"><g><path d="M 1.140625 -18.34375 C 1.140625 -21.445312 1.609375 -24.207031 2.546875 -26.625 C 3.484375 -29.039062 4.773438 -31.070312 6.421875 -32.71875 C 8.078125 -34.363281 10.054688 -35.613281 12.359375 -36.46875 C 14.660156 -37.332031 17.171875 -37.765625 19.890625 -37.765625 C 22.617188 -37.765625 25.132812 -37.332031 27.4375 -36.46875 C 29.738281 -35.613281 31.710938 -34.363281 33.359375 -32.71875 C 35.015625 -31.070312 36.3125 -29.039062 37.25 -26.625 C 38.1875 -24.207031 38.65625 -21.445312 38.65625 -18.34375 C 38.65625 -15.238281 38.1875 -12.472656 37.25 -10.046875 C 36.3125 -7.628906 35.015625 -5.597656 33.359375 -3.953125 C 31.710938 -2.316406 29.738281 -1.066406 27.4375 -0.203125 C 25.132812 0.660156 22.617188 1.09375 19.890625 1.09375 C 17.171875 1.09375 14.660156 0.660156 12.359375 -0.203125 C 10.054688 -1.066406 8.078125 -2.316406 6.421875 -3.953125 C 4.773438 -5.597656 3.484375 -7.628906 2.546875 -10.046875 C 1.609375 -12.472656 1.140625 -15.238281 1.140625 -18.34375 Z M 15.765625 -18.34375 C 15.765625 -14.289062 16.035156 -11.382812 16.578125 -9.625 C 17.128906 -7.863281 18.234375 -6.984375 19.890625 -6.984375 C 21.554688 -6.984375 22.660156 -7.863281 23.203125 -9.625 C 23.753906 -11.382812 24.03125 -14.289062 24.03125 -18.34375 C 24.03125 -22.382812 23.753906 -25.285156 23.203125 -27.046875 C 22.660156 -28.816406 21.554688 -29.703125 19.890625 -29.703125 C 18.234375 -29.703125 17.128906 -28.816406 16.578125 -27.046875 C 16.035156 -25.285156 15.765625 -22.382812 15.765625 -18.34375 Z M 15.765625 -18.34375 "/></g></g></g><g fill="rgb(100%, 100%, 100%)" fill-opacity="1"><g transform="translate(87.286628, 222.63666)"><g><path d="M 20.21875 -38.28125 C 21.34375 -38.28125 22.398438 -38.1875 23.390625 -38 C 24.378906 -37.8125 25.273438 -37.566406 26.078125 -37.265625 C 26.890625 -36.972656 27.585938 -36.660156 28.171875 -36.328125 C 28.765625 -36.003906 29.25 -35.707031 29.625 -35.4375 L 29.625 -37.265625 L 37.96875 -37.265625 L 37.96875 -23.484375 L 29.125 -23.484375 C 29.125 -24.609375 28.984375 -25.550781 28.703125 -26.3125 C 28.421875 -27.070312 28.046875 -27.6875 27.578125 -28.15625 C 27.117188 -28.625 26.578125 -28.957031 25.953125 -29.15625 C 25.328125 -29.363281 24.65625 -29.46875 23.9375 -29.46875 C 22.9375 -29.46875 22.082031 -29.273438 21.375 -28.890625 C 20.664062 -28.515625 20.085938 -27.90625 19.640625 -27.0625 C 19.191406 -26.226562 18.851562 -25.109375 18.625 -23.703125 C 18.40625 -22.304688 18.296875 -20.601562 18.296875 -18.59375 C 18.296875 -16.550781 18.414062 -14.84375 18.65625 -13.46875 C 18.90625 -12.09375 19.273438 -10.976562 19.765625 -10.125 C 20.265625 -9.28125 20.898438 -8.664062 21.671875 -8.28125 C 22.453125 -7.90625 23.382812 -7.71875 24.46875 -7.71875 C 25.1875 -7.71875 25.882812 -7.851562 26.5625 -8.125 C 27.238281 -8.40625 27.832031 -8.832031 28.34375 -9.40625 C 28.863281 -9.976562 29.269531 -10.695312 29.5625 -11.5625 C 29.851562 -12.425781 30 -13.460938 30 -14.671875 L 38.8125 -14.671875 C 38.8125 -12.523438 38.472656 -10.5 37.796875 -8.59375 C 37.117188 -6.695312 36.0625 -5.03125 34.625 -3.59375 C 33.195312 -2.15625 31.378906 -1.015625 29.171875 -0.171875 C 26.960938 0.671875 24.335938 1.09375 21.296875 1.09375 C 18.566406 1.09375 15.984375 0.722656 13.546875 -0.015625 C 11.109375 -0.765625 8.984375 -1.929688 7.171875 -3.515625 C 5.359375 -5.097656 3.925781 -7.132812 2.875 -9.625 C 1.820312 -12.113281 1.296875 -15.101562 1.296875 -18.59375 C 1.296875 -22.082031 1.828125 -25.070312 2.890625 -27.5625 C 3.960938 -30.050781 5.378906 -32.085938 7.140625 -33.671875 C 8.910156 -35.253906 10.925781 -36.414062 13.1875 -37.15625 C 15.445312 -37.90625 17.789062 -38.28125 20.21875 -38.28125 Z M 20.21875 -38.28125 "/></g></g></g><g fill="rgb(100%, 100%, 100%)" fill-opacity="1"><g transform="translate(127.652851, 222.63666)"><g><path d="M 1.03125 -13.984375 C 1.03125 -16.460938 1.460938 -18.640625 2.328125 -20.515625 C 3.191406 -22.390625 4.421875 -23.953125 6.015625 -25.203125 C 7.609375 -26.460938 9.523438 -27.410156 11.765625 -28.046875 C 14.003906 -28.691406 16.507812 -29.015625 19.28125 -29.015625 C 22.039062 -29.015625 24.539062 -28.691406 26.78125 -28.046875 C 29.03125 -27.410156 30.945312 -26.460938 32.53125 -25.203125 C 34.113281 -23.953125 35.335938 -22.390625 36.203125 -20.515625 C 37.078125 -18.640625 37.515625 -16.460938 37.515625 -13.984375 C 37.515625 -11.546875 37.078125 -9.378906 36.203125 -7.484375 C 35.335938 -5.597656 34.113281 -4.015625 32.53125 -2.734375 C 30.945312 -1.460938 29.03125 -0.507812 26.78125 0.125 C 24.539062 0.769531 22.039062 1.09375 19.28125 1.09375 C 16.507812 1.09375 14.003906 0.769531 11.765625 0.125 C 9.523438 -0.507812 7.609375 -1.460938 6.015625 -2.734375 C 4.421875 -4.015625 3.191406 -5.597656 2.328125 -7.484375 C 1.460938 -9.378906 1.03125 -11.546875 1.03125 -13.984375 Z M 15.4375 -13.984375 C 15.4375 -12.566406 15.5 -11.363281 15.625 -10.375 C 15.75 -9.394531 15.953125 -8.601562 16.234375 -8 C 16.523438 -7.40625 16.914062 -6.96875 17.40625 -6.6875 C 17.894531 -6.414062 18.519531 -6.28125 19.28125 -6.28125 C 20.039062 -6.28125 20.660156 -6.414062 21.140625 -6.6875 C 21.617188 -6.96875 22.003906 -7.40625 22.296875 -8 C 22.597656 -8.601562 22.804688 -9.394531 22.921875 -10.375 C 23.035156 -11.363281 23.09375 -12.566406 23.09375 -13.984375 C 23.09375 -16.816406 22.828125 -18.800781 22.296875 -19.9375 C 21.765625 -21.082031 20.757812 -21.65625 19.28125 -21.65625 C 18.519531 -21.65625 17.894531 -21.523438 17.40625 -21.265625 C 16.914062 -21.003906 16.523438 -20.570312 16.234375 -19.96875 C 15.953125 -19.375 15.75 -18.582031 15.625 -17.59375 C 15.5 -16.601562 15.4375 -15.398438 15.4375 -13.984375 Z M 15.4375 -13.984375 "/></g></g></g><g fill="rgb(100%, 100%, 100%)" fill-opacity="1"><g transform="translate(165.691494, 222.63666)"><g><path d="M 36.4375 -37.265625 L 36.4375 -11.453125 C 36.4375 -10.765625 36.625 -10.25 37 -9.90625 C 37.375 -9.5625 37.910156 -9.390625 38.609375 -9.390625 L 40.046875 -9.390625 L 40.046875 0 L 23.046875 0 L 23.046875 -4.609375 L 22.640625 -4.609375 C 22.367188 -3.878906 21.972656 -3.1875 21.453125 -2.53125 C 20.929688 -1.875 20.289062 -1.296875 19.53125 -0.796875 C 18.769531 -0.296875 17.867188 0.0976562 16.828125 0.390625 C 15.796875 0.679688 14.625 0.828125 13.3125 0.828125 C 9.175781 0.828125 6.046875 -0.421875 3.921875 -2.921875 C 1.796875 -5.421875 0.734375 -9.09375 0.734375 -13.9375 C 0.734375 -18.78125 1.867188 -22.375 4.140625 -24.71875 C 6.421875 -27.0625 9.550781 -28.234375 13.53125 -28.234375 C 14.59375 -28.234375 15.546875 -28.148438 16.390625 -27.984375 C 17.234375 -27.816406 18 -27.597656 18.6875 -27.328125 C 19.382812 -27.066406 20.046875 -26.769531 20.671875 -26.4375 C 21.296875 -26.113281 21.921875 -25.800781 22.546875 -25.5 L 22.546875 -26.40625 C 22.546875 -27.320312 22.390625 -27.96875 22.078125 -28.34375 C 21.765625 -28.726562 21.160156 -28.921875 20.265625 -28.921875 L 18.921875 -28.921875 L 18.921875 -37.265625 Z M 15.125 -13.6875 C 15.125 -12.78125 15.175781 -11.921875 15.28125 -11.109375 C 15.382812 -10.296875 15.570312 -9.585938 15.84375 -8.984375 C 16.125 -8.378906 16.492188 -7.90625 16.953125 -7.5625 C 17.421875 -7.226562 18.035156 -7.0625 18.796875 -7.0625 C 19.554688 -7.0625 20.179688 -7.21875 20.671875 -7.53125 C 21.160156 -7.851562 21.539062 -8.300781 21.8125 -8.875 C 22.09375 -9.445312 22.285156 -10.128906 22.390625 -10.921875 C 22.492188 -11.722656 22.546875 -12.566406 22.546875 -13.453125 L 22.546875 -19.171875 C 22.117188 -19.578125 21.550781 -19.921875 20.84375 -20.203125 C 20.132812 -20.484375 19.453125 -20.625 18.796875 -20.625 C 18.035156 -20.625 17.421875 -20.429688 16.953125 -20.046875 C 16.492188 -19.671875 16.125 -19.160156 15.84375 -18.515625 C 15.570312 -17.878906 15.382812 -17.140625 15.28125 -16.296875 C 15.175781 -15.453125 15.125 -14.582031 15.125 -13.6875 Z M 15.125 -13.6875 "/></g></g></g><g fill="rgb(100%, 100%, 100%)" fill-opacity="1"><g transform="translate(206.513106, 222.63666)"><g><path d="M 19.734375 -27.875 L 19.734375 -12.125 C 19.734375 -10.988281 20.007812 -10.25 20.5625 -9.90625 C 21.125 -9.5625 21.832031 -9.390625 22.6875 -9.390625 L 23.375 -9.390625 L 23.375 0 L 2.078125 0 L 2.078125 -9.390625 L 3.0625 -9.390625 C 3.957031 -9.390625 4.617188 -9.671875 5.046875 -10.234375 C 5.472656 -10.796875 5.6875 -11.40625 5.6875 -12.0625 L 5.6875 -15.640625 C 5.6875 -16.617188 5.378906 -17.335938 4.765625 -17.796875 C 4.148438 -18.265625 3.4375 -18.5 2.625 -18.5 L 2.078125 -18.5 L 2.078125 -27.875 Z M 5.28125 -34.109375 C 5.28125 -35.554688 5.832031 -36.789062 6.9375 -37.8125 C 8.050781 -38.84375 9.625 -39.359375 11.65625 -39.359375 C 13.738281 -39.359375 15.335938 -38.84375 16.453125 -37.8125 C 17.578125 -36.789062 18.140625 -35.554688 18.140625 -34.109375 C 18.140625 -32.617188 17.578125 -31.363281 16.453125 -30.34375 C 15.335938 -29.320312 13.738281 -28.8125 11.65625 -28.8125 C 9.625 -28.8125 8.050781 -29.320312 6.9375 -30.34375 C 5.832031 -31.363281 5.28125 -32.617188 5.28125 -34.109375 Z M 5.28125 -34.109375 "/></g></g></g><g fill="rgb(100%, 100%, 100%)" fill-opacity="1"><g transform="translate(229.877887, 222.63666)"><g><path d="M 25.40625 -16.171875 C 25.40625 -16.828125 25.320312 -17.351562 25.15625 -17.75 C 25 -18.144531 24.796875 -18.445312 24.546875 -18.65625 C 24.304688 -18.863281 24.035156 -19 23.734375 -19.0625 C 23.429688 -19.132812 23.132812 -19.171875 22.84375 -19.171875 C 21.75 -19.171875 20.929688 -18.847656 20.390625 -18.203125 C 19.847656 -17.566406 19.578125 -16.660156 19.578125 -15.484375 L 19.578125 -11.859375 C 19.578125 -10.972656 19.734375 -10.335938 20.046875 -9.953125 C 20.359375 -9.578125 20.960938 -9.390625 21.859375 -9.390625 L 23.21875 -9.390625 L 23.21875 0 L 2.078125 0 L 2.078125 -9.390625 L 3.5625 -9.390625 C 4.257812 -9.390625 4.785156 -9.613281 5.140625 -10.0625 C 5.503906 -10.507812 5.6875 -11.039062 5.6875 -11.65625 L 5.6875 -16.46875 C 5.6875 -17.257812 5.453125 -17.796875 4.984375 -18.078125 C 4.523438 -18.359375 4.003906 -18.5 3.421875 -18.5 L 2.078125 -18.5 L 2.078125 -27.875 L 17.109375 -27.875 L 16.578125 -20.921875 L 17 -20.921875 C 17.375 -23.515625 18.515625 -25.507812 20.421875 -26.90625 C 22.328125 -28.3125 24.914062 -29.015625 28.1875 -29.015625 C 30.5 -29.015625 32.378906 -28.6875 33.828125 -28.03125 C 35.273438 -27.375 36.398438 -26.539062 37.203125 -25.53125 C 38.003906 -24.53125 38.546875 -23.441406 38.828125 -22.265625 C 39.117188 -21.097656 39.265625 -20 39.265625 -18.96875 L 39.265625 -11.859375 C 39.265625 -10.972656 39.421875 -10.335938 39.734375 -9.953125 C 40.046875 -9.578125 40.648438 -9.390625 41.546875 -9.390625 L 42.90625 -9.390625 L 42.90625 0 L 25.40625 0 Z M 25.40625 -16.171875 "/></g></g></g><g fill="rgb(100%, 100%, 100%)" fill-opacity="1"><g transform="translate(272.774093, 222.63666)"><g><path d="M 38.171875 4.609375 C 38.171875 7.472656 36.519531 9.660156 33.21875 11.171875 C 29.925781 12.691406 25.160156 13.453125 18.921875 13.453125 C 16.660156 13.453125 14.457031 13.414062 12.3125 13.34375 C 10.175781 13.28125 8.28125 13.0625 6.625 12.6875 C 4.976562 12.3125 3.648438 11.707031 2.640625 10.875 C 1.640625 10.050781 1.140625 8.878906 1.140625 7.359375 C 1.140625 6.148438 1.523438 5.15625 2.296875 4.375 C 3.078125 3.601562 3.914062 2.988281 4.8125 2.53125 C 3.707031 1.875 2.957031 1.140625 2.5625 0.328125 C 2.164062 -0.484375 1.96875 -1.367188 1.96875 -2.328125 C 1.96875 -3.472656 2.378906 -4.570312 3.203125 -5.625 C 4.035156 -6.675781 5.226562 -7.703125 6.78125 -8.703125 C 5.257812 -9.703125 4.09375 -10.914062 3.28125 -12.34375 C 2.476562 -13.78125 2.078125 -15.484375 2.078125 -17.453125 C 2.078125 -19.359375 2.472656 -21.023438 3.265625 -22.453125 C 4.054688 -23.890625 5.191406 -25.085938 6.671875 -26.046875 C 8.160156 -27.015625 9.929688 -27.75 11.984375 -28.25 C 14.046875 -28.757812 16.359375 -29.015625 18.921875 -29.015625 C 21.671875 -29.015625 24.15625 -28.71875 26.375 -28.125 C 28.59375 -27.539062 30.476562 -26.648438 32.03125 -25.453125 C 32.332031 -25.859375 32.742188 -26.253906 33.265625 -26.640625 C 33.703125 -26.941406 34.257812 -27.222656 34.9375 -27.484375 C 35.613281 -27.742188 36.441406 -27.875 37.421875 -27.875 L 39.75 -27.875 L 39.75 -18.5 L 38.078125 -18.5 C 37.347656 -18.5 36.789062 -18.296875 36.40625 -17.890625 C 36.03125 -17.492188 35.8125 -17.113281 35.75 -16.75 C 35.15625 -13.1875 33.429688 -10.46875 30.578125 -8.59375 C 27.734375 -6.726562 23.847656 -5.796875 18.921875 -5.796875 C 16.160156 -5.796875 13.65625 -6.085938 11.40625 -6.671875 C 11.050781 -6.441406 10.875 -6.148438 10.875 -5.796875 C 10.875 -5.140625 11.257812 -4.675781 12.03125 -4.40625 C 12.8125 -4.132812 13.84375 -3.953125 15.125 -3.859375 C 16.40625 -3.765625 17.863281 -3.726562 19.5 -3.75 C 21.132812 -3.78125 22.804688 -3.753906 24.515625 -3.671875 C 26.234375 -3.597656 27.914062 -3.441406 29.5625 -3.203125 C 31.207031 -2.972656 32.664062 -2.550781 33.9375 -1.9375 C 35.207031 -1.332031 36.226562 -0.503906 37 0.546875 C 37.78125 1.597656 38.171875 2.953125 38.171875 4.609375 Z M 15.375 -17.453125 C 15.375 -15.703125 15.617188 -14.347656 16.109375 -13.390625 C 16.597656 -12.441406 17.535156 -11.96875 18.921875 -11.96875 C 20.328125 -11.96875 21.269531 -12.441406 21.75 -13.390625 C 22.238281 -14.347656 22.484375 -15.703125 22.484375 -17.453125 C 22.484375 -19.191406 22.238281 -20.515625 21.75 -21.421875 C 21.269531 -22.335938 20.328125 -22.796875 18.921875 -22.796875 C 17.535156 -22.796875 16.597656 -22.335938 16.109375 -21.421875 C 15.617188 -20.515625 15.375 -19.191406 15.375 -17.453125 Z M 20.0625 4.984375 C 18.257812 4.984375 16.625 4.9375 15.15625 4.84375 C 13.6875 4.75 12.363281 4.617188 11.1875 4.453125 C 11.007812 4.734375 10.921875 5.03125 10.921875 5.34375 C 10.921875 6.550781 11.578125 7.34375 12.890625 7.71875 C 14.210938 8.101562 15.945312 8.296875 18.09375 8.296875 C 20.957031 8.296875 23.050781 8.125 24.375 7.78125 C 25.695312 7.4375 26.359375 6.953125 26.359375 6.328125 C 26.359375 6.003906 26.164062 5.757812 25.78125 5.59375 C 25.40625 5.425781 24.910156 5.289062 24.296875 5.1875 C 23.679688 5.082031 23.003906 5.019531 22.265625 5 C 21.523438 4.988281 20.789062 4.984375 20.0625 4.984375 Z M 20.0625 4.984375 "/></g></g></g><g fill="rgb(100%, 100%, 100%)" fill-opacity="1"><g transform="translate(199.902369, 270.70777)"><g/></g></g><g fill="rgb(100%, 100%, 100%)" fill-opacity="1"><g transform="translate(161.107798, 304.77934)"><g><path d="M 6.375 -1.90625 C 6.445312 -1.90625 6.515625 -1.875 6.578125 -1.8125 L 7.171875 -1.171875 C 6.847656 -0.765625 6.445312 -0.453125 5.96875 -0.234375 C 5.488281 -0.015625 4.910156 0.09375 4.234375 0.09375 C 3.640625 0.09375 3.101562 -0.0078125 2.625 -0.21875 C 2.144531 -0.425781 1.734375 -0.710938 1.390625 -1.078125 C 1.054688 -1.441406 0.796875 -1.875 0.609375 -2.375 C 0.429688 -2.882812 0.34375 -3.4375 0.34375 -4.03125 C 0.34375 -4.644531 0.441406 -5.203125 0.640625 -5.703125 C 0.847656 -6.210938 1.132812 -6.648438 1.5 -7.015625 C 1.863281 -7.378906 2.296875 -7.660156 2.796875 -7.859375 C 3.304688 -8.066406 3.867188 -8.171875 4.484375 -8.171875 C 5.085938 -8.171875 5.613281 -8.070312 6.0625 -7.875 C 6.507812 -7.6875 6.894531 -7.429688 7.21875 -7.109375 L 6.71875 -6.421875 C 6.6875 -6.367188 6.644531 -6.328125 6.59375 -6.296875 C 6.550781 -6.265625 6.488281 -6.25 6.40625 -6.25 C 6.320312 -6.25 6.234375 -6.28125 6.140625 -6.34375 C 6.054688 -6.414062 5.941406 -6.488281 5.796875 -6.5625 C 5.660156 -6.644531 5.488281 -6.71875 5.28125 -6.78125 C 5.070312 -6.851562 4.804688 -6.890625 4.484375 -6.890625 C 4.097656 -6.890625 3.742188 -6.820312 3.421875 -6.6875 C 3.109375 -6.550781 2.835938 -6.359375 2.609375 -6.109375 C 2.378906 -5.867188 2.195312 -5.570312 2.0625 -5.21875 C 1.9375 -4.875 1.875 -4.476562 1.875 -4.03125 C 1.875 -3.582031 1.9375 -3.179688 2.0625 -2.828125 C 2.195312 -2.472656 2.375 -2.171875 2.59375 -1.921875 C 2.8125 -1.679688 3.070312 -1.5 3.375 -1.375 C 3.675781 -1.25 3.992188 -1.1875 4.328125 -1.1875 C 4.535156 -1.1875 4.722656 -1.195312 4.890625 -1.21875 C 5.054688 -1.238281 5.207031 -1.269531 5.34375 -1.3125 C 5.488281 -1.363281 5.625 -1.425781 5.75 -1.5 C 5.875 -1.582031 5.992188 -1.679688 6.109375 -1.796875 C 6.148438 -1.828125 6.191406 -1.851562 6.234375 -1.875 C 6.273438 -1.894531 6.320312 -1.90625 6.375 -1.90625 Z M 6.375 -1.90625 "/></g></g></g><g fill="rgb(100%, 100%, 100%)" fill-opacity="1"><g transform="translate(170.270333, 304.77934)"><g><path d="M 7.625 0 L 6.109375 0 L 6.109375 -3.53125 L 2.328125 -3.53125 L 2.328125 0 L 0.8125 0 L 0.8125 -8.078125 L 2.328125 -8.078125 L 2.328125 -4.609375 L 6.109375 -4.609375 L 6.109375 -8.078125 L 7.625 -8.078125 Z M 7.625 0 "/></g></g></g><g fill="rgb(100%, 100%, 100%)" fill-opacity="1"><g transform="translate(180.387472, 304.77934)"><g><path d="M 7.921875 0 L 6.75 0 C 6.625 0 6.519531 -0.03125 6.4375 -0.09375 C 6.351562 -0.164062 6.289062 -0.25 6.25 -0.34375 L 5.640625 -1.984375 L 2.296875 -1.984375 L 1.703125 -0.34375 C 1.671875 -0.257812 1.609375 -0.179688 1.515625 -0.109375 C 1.429688 -0.0351562 1.328125 0 1.203125 0 L 0.03125 0 L 3.203125 -8.078125 L 4.75 -8.078125 Z M 2.6875 -3.046875 L 5.265625 -3.046875 L 4.28125 -5.734375 C 4.238281 -5.859375 4.1875 -6 4.125 -6.15625 C 4.070312 -6.320312 4.019531 -6.5 3.96875 -6.6875 C 3.914062 -6.5 3.863281 -6.320312 3.8125 -6.15625 C 3.769531 -5.988281 3.722656 -5.84375 3.671875 -5.71875 Z M 2.6875 -3.046875 "/></g></g></g><g fill="rgb(100%, 100%, 100%)" fill-opacity="1"><g transform="translate(189.99102, 304.77934)"><g><path d="M 2.3125 -1.234375 L 5.546875 -1.234375 L 5.546875 0 L 0.8125 0 L 0.8125 -8.078125 L 2.3125 -8.078125 Z M 2.3125 -1.234375 "/></g></g></g><g fill="rgb(100%, 100%, 100%)" fill-opacity="1"><g transform="translate(197.43972, 304.77934)"><g><path d="M 2.3125 -1.234375 L 5.546875 -1.234375 L 5.546875 0 L 0.8125 0 L 0.8125 -8.078125 L 2.3125 -8.078125 Z M 2.3125 -1.234375 "/></g></g></g><g fill="rgb(100%, 100%, 100%)" fill-opacity="1"><g transform="translate(204.888421, 304.77934)"><g><path d="M 5.90625 -8.078125 L 5.90625 -6.875 L 2.328125 -6.875 L 2.328125 -4.640625 L 5.15625 -4.640625 L 5.15625 -3.484375 L 2.328125 -3.484375 L 2.328125 -1.203125 L 5.90625 -1.203125 L 5.90625 0 L 0.8125 0 L 0.8125 -8.078125 Z M 5.90625 -8.078125 "/></g></g></g><g fill="rgb(100%, 100%, 100%)" fill-opacity="1"><g transform="translate(212.956786, 304.77934)"><g><path d="M 1.609375 -8.078125 C 1.671875 -8.078125 1.722656 -8.070312 1.765625 -8.0625 C 1.816406 -8.0625 1.859375 -8.050781 1.890625 -8.03125 C 1.921875 -8.019531 1.953125 -8 1.984375 -7.96875 C 2.023438 -7.9375 2.066406 -7.894531 2.109375 -7.84375 L 6.34375 -2.4375 C 6.332031 -2.5625 6.320312 -2.6875 6.3125 -2.8125 C 6.3125 -2.9375 6.3125 -3.054688 6.3125 -3.171875 L 6.3125 -8.078125 L 7.625 -8.078125 L 7.625 0 L 6.859375 0 C 6.734375 0 6.628906 -0.015625 6.546875 -0.046875 C 6.472656 -0.0859375 6.398438 -0.15625 6.328125 -0.25 L 2.109375 -5.640625 C 2.117188 -5.515625 2.125 -5.394531 2.125 -5.28125 C 2.132812 -5.164062 2.140625 -5.054688 2.140625 -4.953125 L 2.140625 0 L 0.8125 0 L 0.8125 -8.078125 Z M 1.609375 -8.078125 "/></g></g></g><g fill="rgb(100%, 100%, 100%)" fill-opacity="1"><g transform="translate(223.073923, 304.77934)"><g><path d="M 4.53125 -1.109375 C 4.863281 -1.109375 5.15625 -1.140625 5.40625 -1.203125 C 5.65625 -1.265625 5.894531 -1.347656 6.125 -1.453125 L 6.125 -2.921875 L 5.109375 -2.921875 C 5.015625 -2.921875 4.9375 -2.945312 4.875 -3 C 4.820312 -3.050781 4.796875 -3.117188 4.796875 -3.203125 L 4.796875 -4.046875 L 7.484375 -4.046875 L 7.484375 -0.78125 C 7.285156 -0.632812 7.070312 -0.503906 6.84375 -0.390625 C 6.625 -0.285156 6.390625 -0.195312 6.140625 -0.125 C 5.890625 -0.0507812 5.617188 0 5.328125 0.03125 C 5.046875 0.0703125 4.738281 0.09375 4.40625 0.09375 C 3.820312 0.09375 3.28125 -0.0078125 2.78125 -0.21875 C 2.28125 -0.425781 1.847656 -0.710938 1.484375 -1.078125 C 1.128906 -1.441406 0.847656 -1.875 0.640625 -2.375 C 0.441406 -2.882812 0.34375 -3.4375 0.34375 -4.03125 C 0.34375 -4.644531 0.441406 -5.203125 0.640625 -5.703125 C 0.835938 -6.210938 1.117188 -6.648438 1.484375 -7.015625 C 1.847656 -7.378906 2.285156 -7.660156 2.796875 -7.859375 C 3.316406 -8.066406 3.898438 -8.171875 4.546875 -8.171875 C 5.203125 -8.171875 5.769531 -8.070312 6.25 -7.875 C 6.738281 -7.675781 7.148438 -7.421875 7.484375 -7.109375 L 7.046875 -6.421875 C 6.960938 -6.285156 6.847656 -6.21875 6.703125 -6.21875 C 6.617188 -6.21875 6.53125 -6.25 6.4375 -6.3125 C 6.3125 -6.382812 6.1875 -6.453125 6.0625 -6.515625 C 5.9375 -6.585938 5.796875 -6.648438 5.640625 -6.703125 C 5.492188 -6.753906 5.328125 -6.796875 5.140625 -6.828125 C 4.953125 -6.867188 4.738281 -6.890625 4.5 -6.890625 C 4.101562 -6.890625 3.742188 -6.820312 3.421875 -6.6875 C 3.097656 -6.550781 2.820312 -6.359375 2.59375 -6.109375 C 2.363281 -5.859375 2.1875 -5.554688 2.0625 -5.203125 C 1.9375 -4.859375 1.875 -4.46875 1.875 -4.03125 C 1.875 -3.570312 1.941406 -3.160156 2.078125 -2.796875 C 2.210938 -2.429688 2.394531 -2.125 2.625 -1.875 C 2.863281 -1.625 3.144531 -1.429688 3.46875 -1.296875 C 3.789062 -1.171875 4.144531 -1.109375 4.53125 -1.109375 Z M 4.53125 -1.109375 "/></g></g></g><g fill="rgb(100%, 100%, 100%)" fill-opacity="1"><g transform="translate(232.822615, 304.77934)"><g><path d="M 5.90625 -8.078125 L 5.90625 -6.875 L 2.328125 -6.875 L 2.328125 -4.640625 L 5.15625 -4.640625 L 5.15625 -3.484375 L 2.328125 -3.484375 L 2.328125 -1.203125 L 5.90625 -1.203125 L 5.90625 0 L 0.8125 0 L 0.8125 -8.078125 Z M 5.90625 -8.078125 "/></g></g></g><path fill="rgb(100%, 88.238525%, 0%)" d="M 207.089844 47.167969 C 206.105469 47.167969 205.128906 47.265625 204.164062 47.457031 C 203.199219 47.648438 202.257812 47.933594 201.347656 48.3125 C 200.4375 48.6875 199.574219 49.152344 198.753906 49.699219 C 197.9375 50.246094 197.179688 50.867188 196.480469 51.5625 C 195.785156 52.261719 195.164062 53.019531 194.617188 53.835938 C 194.070312 54.65625 193.605469 55.519531 193.230469 56.429688 C 192.851562 57.339844 192.570312 58.28125 192.375 59.246094 C 192.183594 60.210938 192.089844 61.1875 192.089844 62.171875 C 192.089844 63.15625 192.183594 64.132812 192.375 65.097656 C 192.570312 66.066406 192.851562 67.003906 193.230469 67.914062 C 193.605469 68.824219 194.070312 69.6875 194.617188 70.507812 C 195.164062 71.328125 195.785156 72.085938 196.480469 72.78125 C 197.179688 73.476562 197.9375 74.101562 198.753906 74.648438 C 199.574219 75.195312 200.4375 75.65625 201.347656 76.035156 C 202.257812 76.410156 203.199219 76.695312 204.164062 76.886719 C 205.128906 77.078125 206.105469 77.175781 207.089844 77.175781 C 208.074219 77.175781 209.050781 77.078125 210.019531 76.886719 C 210.984375 76.695312 211.921875 76.410156 212.832031 76.035156 C 213.742188 75.65625 214.605469 75.195312 215.425781 74.648438 C 216.246094 74.101562 217.003906 73.476562 217.699219 72.78125 C 218.394531 72.085938 219.019531 71.328125 219.566406 70.507812 C 220.113281 69.6875 220.574219 68.824219 220.953125 67.914062 C 221.328125 67.003906 221.613281 66.066406 221.804688 65.097656 C 221.996094 64.132812 222.09375 63.15625 222.09375 62.171875 C 222.09375 61.1875 221.996094 60.210938 221.804688 59.246094 C 221.613281 58.28125 221.328125 57.339844 220.953125 56.429688 C 220.574219 55.519531 220.113281 54.65625 219.566406 53.835938 C 219.019531 53.019531 218.394531 52.261719 217.699219 51.5625 C 217.003906 50.867188 216.246094 50.246094 215.425781 49.699219 C 214.605469 49.152344 213.742188 48.6875 212.832031 48.3125 C 211.921875 47.933594 210.984375 47.648438 210.019531 47.457031 C 209.050781 47.265625 208.074219 47.167969 207.089844 47.167969 Z M 207.089844 47.167969 " fill-opacity="1" fill-rule="nonzero"/><path fill="rgb(100%, 88.238525%, 0%)" d="M 182.574219 74.152344 C 181.585938 74.152344 180.613281 74.25 179.644531 74.441406 C 178.679688 74.632812 177.742188 74.917969 176.832031 75.292969 C 175.921875 75.671875 175.054688 76.132812 174.238281 76.679688 C 173.417969 77.226562 172.660156 77.851562 171.964844 78.546875 C 171.265625 79.242188 170.644531 80 170.097656 80.820312 C 169.550781 81.640625 169.089844 82.503906 168.710938 83.414062 C 168.335938 84.324219 168.050781 85.261719 167.859375 86.226562 C 167.664062 87.195312 167.570312 88.171875 167.570312 89.15625 C 167.570312 90.140625 167.664062 91.117188 167.859375 92.082031 C 168.050781 93.046875 168.335938 93.984375 168.710938 94.894531 C 169.089844 95.804688 169.550781 96.671875 170.097656 97.488281 C 170.644531 98.308594 171.265625 99.066406 171.964844 99.765625 C 172.660156 100.460938 173.417969 101.082031 174.238281 101.628906 C 175.054688 102.175781 175.921875 102.640625 176.832031 103.015625 C 177.742188 103.394531 178.679688 103.675781 179.644531 103.871094 C 180.613281 104.0625 181.585938 104.15625 182.574219 104.15625 C 183.558594 104.15625 184.53125 104.0625 185.5 103.871094 C 186.464844 103.675781 187.402344 103.394531 188.3125 103.015625 C 189.222656 102.640625 190.089844 102.175781 190.90625 101.628906 C 191.726562 101.082031 192.484375 100.460938 193.179688 99.765625 C 193.878906 99.066406 194.5 98.308594 195.046875 97.488281 C 195.59375 96.671875 196.054688 95.804688 196.433594 94.894531 C 196.808594 93.984375 197.09375 93.046875 197.285156 92.082031 C 197.480469 91.117188 197.574219 90.140625 197.574219 89.15625 C 197.574219 88.171875 197.480469 87.195312 197.285156 86.226562 C 197.09375 85.261719 196.808594 84.324219 196.433594 83.414062 C 196.054688 82.503906 195.59375 81.640625 195.046875 80.820312 C 194.5 80 193.878906 79.242188 193.179688 78.546875 C 192.484375 77.851562 191.726562 77.226562 190.90625 76.679688 C 190.089844 76.132812 189.222656 75.671875 188.3125 75.292969 C 187.402344 74.917969 186.464844 74.632812 185.5 74.441406 C 184.53125 74.25 183.558594 74.152344 182.574219 74.152344 Z M 182.574219 74.152344 " fill-opacity="1" fill-rule="nonzero"/><path fill="rgb(100%, 88.238525%, 0%)" d="M 217.558594 81.378906 C 216.574219 81.378906 215.597656 81.472656 214.632812 81.667969 C 213.664062 81.859375 212.726562 82.144531 211.816406 82.519531 C 210.90625 82.898438 210.042969 83.359375 209.222656 83.90625 C 208.40625 84.453125 207.648438 85.074219 206.949219 85.773438 C 206.253906 86.46875 205.632812 87.226562 205.085938 88.046875 C 204.535156 88.863281 204.074219 89.730469 203.699219 90.640625 C 203.320312 91.550781 203.035156 92.488281 202.84375 93.453125 C 202.652344 94.417969 202.554688 95.394531 202.554688 96.378906 C 202.554688 97.367188 202.652344 98.339844 202.84375 99.308594 C 203.035156 100.273438 203.320312 101.210938 203.699219 102.121094 C 204.074219 103.03125 204.535156 103.898438 205.085938 104.714844 C 205.632812 105.535156 206.253906 106.292969 206.949219 106.988281 C 207.648438 107.6875 208.40625 108.308594 209.222656 108.855469 C 210.042969 109.402344 210.90625 109.863281 211.816406 110.242188 C 212.726562 110.617188 213.664062 110.902344 214.632812 111.09375 C 215.597656 111.289062 216.574219 111.382812 217.558594 111.382812 C 218.542969 111.382812 219.519531 111.289062 220.484375 111.09375 C 221.453125 110.902344 222.390625 110.617188 223.300781 110.242188 C 224.210938 109.863281 225.074219 109.402344 225.894531 108.855469 C 226.714844 108.308594 227.472656 107.6875 228.167969 106.988281 C 228.863281 106.292969 229.484375 105.535156 230.035156 104.714844 C 230.582031 103.898438 231.042969 103.03125 231.417969 102.121094 C 231.796875 101.210938 232.082031 100.273438 232.273438 99.308594 C 232.464844 98.339844 232.5625 97.367188 232.5625 96.378906 C 232.5625 95.394531 232.464844 94.417969 232.273438 93.453125 C 232.082031 92.488281 231.796875 91.550781 231.417969 90.640625 C 231.042969 89.730469 230.582031 88.863281 230.035156 88.046875 C 229.484375 87.226562 228.863281 86.46875 228.167969 85.773438 C 227.472656 85.074219 226.714844 84.453125 225.894531 83.90625 C 225.074219 83.359375 224.210938 82.898438 223.300781 82.519531 C 222.390625 82.144531 221.453125 81.859375 220.484375 81.667969 C 219.519531 81.472656 218.542969 81.378906 217.558594 81.378906 Z M 217.558594 81.378906 " fill-opacity="1" fill-rule="nonzero"/></svg>