<svg xmlns="http://www.w3.org/2000/svg" xmlns:xlink="http://www.w3.org/1999/xlink" width="500" zoomAndPan="magnify" viewBox="0 0 375 374.999991" height="500" preserveAspectRatio="xMidYMid meet" version="1.0"><defs><g><g id="id1"/><g id="id2"/></g><clipPath id="id3"><path d="M 113.816406 248.03125 L 262.316406 248.03125 L 262.316406 250.28125 L 113.816406 250.28125 Z M 113.816406 248.03125 " clip-rule="nonzero"/></clipPath><clipPath id="id4"><path d="M 113.816406 223.65625 L 262.316406 223.65625 L 262.316406 225.90625 L 113.816406 225.90625 Z M 113.816406 223.65625 " clip-rule="nonzero"/></clipPath></defs><g fill="rgb(23.919678%, 23.919678%, 23.919678%)" fill-opacity="1"><g transform="translate(122.023831, 165.969788)"><g><path d="M 6.34375 -30.296875 L 0.625 -30.296875 L 0.625 -33.8125 L 16.609375 -33.8125 L 16.609375 -30.296875 L 11.0625 -30.296875 L 11.0625 0 L 6.34375 0 Z M 6.34375 -30.296875 "/></g></g></g><g fill="rgb(23.919678%, 23.919678%, 23.919678%)" fill-opacity="1"><g transform="translate(139.258541, 165.969788)"><g><path d="M 2.625 -33.8125 L 7.34375 -33.8125 L 7.34375 -19.203125 L 16.03125 -19.203125 L 16.03125 -33.8125 L 20.734375 -33.8125 L 20.734375 0 L 16.03125 0 L 16.03125 -15.8125 L 7.34375 -15.8125 L 7.34375 0 L 2.625 0 Z M 2.625 -33.8125 "/></g></g></g><g fill="rgb(23.919678%, 23.919678%, 23.919678%)" fill-opacity="1"><g transform="translate(162.669363, 165.969788)"><g><path d="M 11.265625 0.375 C 7.953125 0.375 5.578125 -0.5625 4.140625 -2.4375 C 2.710938 -4.320312 2 -7.039062 2 -10.59375 L 2 -23.40625 C 2 -26.914062 2.722656 -29.570312 4.171875 -31.375 C 5.617188 -33.1875 7.984375 -34.09375 11.265625 -34.09375 C 14.546875 -34.09375 16.898438 -33.179688 18.328125 -31.359375 C 19.765625 -29.535156 20.484375 -26.882812 20.484375 -23.40625 L 20.484375 -10.5625 C 20.484375 -7.050781 19.757812 -4.347656 18.3125 -2.453125 C 16.875 -0.566406 14.523438 0.375 11.265625 0.375 Z M 11.265625 -3.34375 C 13.015625 -3.34375 14.195312 -3.851562 14.8125 -4.875 C 15.425781 -5.90625 15.734375 -7.46875 15.734375 -9.5625 L 15.734375 -24.375 C 15.734375 -26.4375 15.425781 -27.957031 14.8125 -28.9375 C 14.195312 -29.925781 13.015625 -30.421875 11.265625 -30.421875 C 9.484375 -30.421875 8.285156 -29.925781 7.671875 -28.9375 C 7.066406 -27.957031 6.765625 -26.4375 6.765625 -24.375 L 6.765625 -9.5625 C 6.765625 -7.46875 7.066406 -5.90625 7.671875 -4.875 C 8.285156 -3.851562 9.484375 -3.34375 11.265625 -3.34375 Z M 11.265625 -3.34375 "/></g></g></g><g fill="rgb(23.919678%, 23.919678%, 23.919678%)" fill-opacity="1"><g transform="translate(185.162117, 165.969788)"><g><path d="M 3.171875 -33.8125 L 7.796875 -33.8125 L 13.765625 -6.390625 L 19.78125 -33.8125 L 24.375 -33.8125 L 25 0 L 21.203125 0 L 20.828125 -24.546875 L 15.109375 0 L 12.4375 0 L 6.765625 -24.546875 L 6.390625 0 L 2.546875 0 Z M 3.171875 -33.8125 "/></g></g></g><g fill="rgb(23.919678%, 23.919678%, 23.919678%)" fill-opacity="1"><g transform="translate(212.704257, 165.969788)"><g><path d="M 7.96875 -33.8125 L 12.515625 -33.8125 L 19.734375 0 L 15.28125 0 L 13.734375 -8.515625 L 6.84375 -8.515625 L 5.21875 0 L 0.796875 0 Z M 13.109375 -11.890625 L 10.265625 -27.125 L 7.46875 -11.890625 Z M 13.109375 -11.890625 "/></g></g></g><g fill="rgb(23.919678%, 23.919678%, 23.919678%)" fill-opacity="1"><g transform="translate(233.235677, 165.969788)"><g><path d="M 10.59375 0.375 C 7.757812 0.375 5.597656 -0.5 4.109375 -2.25 C 2.617188 -4.007812 1.789062 -6.414062 1.625 -9.46875 L 5.796875 -10.59375 C 5.941406 -8.425781 6.367188 -6.675781 7.078125 -5.34375 C 7.785156 -4.007812 8.957031 -3.34375 10.59375 -3.34375 C 11.820312 -3.34375 12.75 -3.679688 13.375 -4.359375 C 14 -5.046875 14.3125 -6.023438 14.3125 -7.296875 C 14.3125 -8.691406 14.019531 -9.847656 13.4375 -10.765625 C 12.851562 -11.679688 11.921875 -12.695312 10.640625 -13.8125 L 4.96875 -18.828125 C 3.820312 -19.828125 2.992188 -20.898438 2.484375 -22.046875 C 1.972656 -23.203125 1.71875 -24.617188 1.71875 -26.296875 C 1.71875 -28.765625 2.425781 -30.679688 3.84375 -32.046875 C 5.257812 -33.410156 7.191406 -34.09375 9.640625 -34.09375 C 12.304688 -34.09375 14.320312 -33.382812 15.6875 -31.96875 C 17.050781 -30.550781 17.875 -28.351562 18.15625 -25.375 L 14.140625 -24.296875 C 14.003906 -26.265625 13.625 -27.785156 13 -28.859375 C 12.375 -29.929688 11.253906 -30.46875 9.640625 -30.46875 C 8.441406 -30.46875 7.519531 -30.15625 6.875 -29.53125 C 6.238281 -28.90625 5.921875 -27.976562 5.921875 -26.75 C 5.921875 -25.75 6.085938 -24.90625 6.421875 -24.21875 C 6.753906 -23.539062 7.328125 -22.851562 8.140625 -22.15625 L 13.859375 -17.15625 C 15.328125 -15.84375 16.5 -14.421875 17.375 -12.890625 C 18.257812 -11.359375 18.703125 -9.617188 18.703125 -7.671875 C 18.703125 -5.203125 17.945312 -3.242188 16.4375 -1.796875 C 14.9375 -0.347656 12.988281 0.375 10.59375 0.375 Z M 10.59375 0.375 "/></g></g></g><g fill="rgb(23.919678%, 23.919678%, 23.919678%)" fill-opacity="1"><g transform="translate(125.070706, 209.469785)"><g><path d="M 6.34375 -30.296875 L 0.625 -30.296875 L 0.625 -33.8125 L 16.609375 -33.8125 L 16.609375 -30.296875 L 11.0625 -30.296875 L 11.0625 0 L 6.34375 0 Z M 6.34375 -30.296875 "/></g></g></g><g fill="rgb(23.919678%, 23.919678%, 23.919678%)" fill-opacity="1"><g transform="translate(142.305415, 209.469785)"><g><path d="M 2.625 -33.8125 L 7.34375 -33.8125 L 7.34375 -19.203125 L 16.03125 -19.203125 L 16.03125 -33.8125 L 20.734375 -33.8125 L 20.734375 0 L 16.03125 0 L 16.03125 -15.8125 L 7.34375 -15.8125 L 7.34375 0 L 2.625 0 Z M 2.625 -33.8125 "/></g></g></g><g fill="rgb(23.919678%, 23.919678%, 23.919678%)" fill-opacity="1"><g transform="translate(165.716238, 209.469785)"><g><path d="M 11.359375 0.375 C 8.984375 0.375 7.132812 -0.0976562 5.8125 -1.046875 C 4.5 -1.992188 3.59375 -3.3125 3.09375 -5 C 2.59375 -6.695312 2.34375 -8.828125 2.34375 -11.390625 L 2.34375 -33.8125 L 6.84375 -33.8125 L 6.84375 -11.1875 C 6.84375 -8.625 7.140625 -6.675781 7.734375 -5.34375 C 8.335938 -4.007812 9.546875 -3.34375 11.359375 -3.34375 C 13.160156 -3.34375 14.359375 -4.007812 14.953125 -5.34375 C 15.554688 -6.675781 15.859375 -8.625 15.859375 -11.1875 L 15.859375 -33.8125 L 20.328125 -33.8125 L 20.328125 -11.390625 C 20.328125 -8.828125 20.078125 -6.695312 19.578125 -5 C 19.078125 -3.3125 18.171875 -1.992188 16.859375 -1.046875 C 15.554688 -0.0976562 13.722656 0.375 11.359375 0.375 Z M 11.359375 0.375 "/></g></g></g><g fill="rgb(23.919678%, 23.919678%, 23.919678%)" fill-opacity="1"><g transform="translate(188.375916, 209.469785)"><g><path d="M 2.625 -33.8125 L 9.4375 -33.8125 C 12.851562 -33.8125 15.359375 -33.109375 16.953125 -31.703125 C 18.554688 -30.296875 19.359375 -28.003906 19.359375 -24.828125 C 19.359375 -20.492188 17.96875 -17.863281 15.1875 -16.9375 L 19.984375 0 L 15.4375 0 L 11.015625 -15.859375 L 7.34375 -15.859375 L 7.34375 0 L 2.625 0 Z M 9.140625 -19.234375 C 11.171875 -19.234375 12.625 -19.632812 13.5 -20.4375 C 14.375 -21.25 14.8125 -22.710938 14.8125 -24.828125 C 14.8125 -26.222656 14.65625 -27.316406 14.34375 -28.109375 C 14.039062 -28.898438 13.5 -29.484375 12.71875 -29.859375 C 11.945312 -30.234375 10.851562 -30.421875 9.4375 -30.421875 L 7.34375 -30.421875 L 7.34375 -19.234375 Z M 9.140625 -19.234375 "/></g></g></g><g fill="rgb(23.919678%, 23.919678%, 23.919678%)" fill-opacity="1"><g transform="translate(210.034053, 209.469785)"><g><path d="M 1.578125 -3.375 L 11.515625 -30.421875 L 2.21875 -30.421875 L 2.21875 -33.8125 L 16.53125 -33.8125 L 16.53125 -31.765625 L 6.046875 -3.375 L 16.53125 -3.375 L 16.53125 0 L 1.578125 0 Z M 1.578125 -3.375 "/></g></g></g><g fill="rgb(23.919678%, 23.919678%, 23.919678%)" fill-opacity="1"><g transform="translate(227.435675, 209.469785)"><g><path d="M 11.265625 0.375 C 7.953125 0.375 5.578125 -0.5625 4.140625 -2.4375 C 2.710938 -4.320312 2 -7.039062 2 -10.59375 L 2 -23.40625 C 2 -26.914062 2.722656 -29.570312 4.171875 -31.375 C 5.617188 -33.1875 7.984375 -34.09375 11.265625 -34.09375 C 14.546875 -34.09375 16.898438 -33.179688 18.328125 -31.359375 C 19.765625 -29.535156 20.484375 -26.882812 20.484375 -23.40625 L 20.484375 -10.5625 C 20.484375 -7.050781 19.757812 -4.347656 18.3125 -2.453125 C 16.875 -0.566406 14.523438 0.375 11.265625 0.375 Z M 11.265625 -3.34375 C 13.015625 -3.34375 14.195312 -3.851562 14.8125 -4.875 C 15.425781 -5.90625 15.734375 -7.46875 15.734375 -9.5625 L 15.734375 -24.375 C 15.734375 -26.4375 15.425781 -27.957031 14.8125 -28.9375 C 14.195312 -29.925781 13.015625 -30.421875 11.265625 -30.421875 C 9.484375 -30.421875 8.285156 -29.925781 7.671875 -28.9375 C 7.066406 -27.957031 6.765625 -26.4375 6.765625 -24.375 L 6.765625 -9.5625 C 6.765625 -7.46875 7.066406 -5.90625 7.671875 -4.875 C 8.285156 -3.851562 9.484375 -3.34375 11.265625 -3.34375 Z M 11.265625 -3.34375 "/></g></g></g><g fill="rgb(23.919678%, 23.919678%, 23.919678%)" fill-opacity="1"><g transform="translate(106.38733, 239.627622)"><g><path d="M 1.90625 0 L 0.71875 0 L 0.71875 -5.671875 L 3.96875 -5.671875 L 3.96875 -4.6875 L 1.90625 -4.6875 L 1.90625 -3.234375 L 3.828125 -3.234375 L 3.828125 -2.25 L 1.90625 -2.25 Z M 1.90625 0 "/></g></g></g><g fill="rgb(23.919678%, 23.919678%, 23.919678%)" fill-opacity="1"><g transform="translate(113.928064, 239.627622)"><g><path d="M 5.328125 -5.671875 L 5.328125 -2 C 5.328125 -1.582031 5.234375 -1.210938 5.046875 -0.890625 C 4.859375 -0.578125 4.585938 -0.335938 4.234375 -0.171875 C 3.878906 -0.00390625 3.460938 0.078125 2.984375 0.078125 C 2.253906 0.078125 1.6875 -0.109375 1.28125 -0.484375 C 0.875 -0.859375 0.671875 -1.367188 0.671875 -2.015625 L 0.671875 -5.671875 L 1.875 -5.671875 L 1.875 -2.203125 C 1.875 -1.765625 1.960938 -1.441406 2.140625 -1.234375 C 2.316406 -1.035156 2.609375 -0.9375 3.015625 -0.9375 C 3.410156 -0.9375 3.695312 -1.035156 3.875 -1.234375 C 4.050781 -1.441406 4.140625 -1.765625 4.140625 -2.203125 L 4.140625 -5.671875 Z M 5.328125 -5.671875 "/></g></g></g><g fill="rgb(23.919678%, 23.919678%, 23.919678%)" fill-opacity="1"><g transform="translate(123.113727, 239.627622)"><g><path d="M 0.71875 0 L 0.71875 -5.671875 L 1.921875 -5.671875 L 1.921875 -1 L 4.21875 -1 L 4.21875 0 Z M 0.71875 0 "/></g></g></g><g fill="rgb(23.919678%, 23.919678%, 23.919678%)" fill-opacity="1"><g transform="translate(130.782487, 239.627622)"><g><path d="M 0.71875 0 L 0.71875 -5.671875 L 1.921875 -5.671875 L 1.921875 -1 L 4.21875 -1 L 4.21875 0 Z M 0.71875 0 "/></g></g></g><g fill="rgb(23.919678%, 23.919678%, 23.919678%)" fill-opacity="1"><g transform="translate(138.451247, 239.627622)"><g/></g></g><g fill="rgb(23.919678%, 23.919678%, 23.919678%)" fill-opacity="1"><g transform="translate(143.69529, 239.627622)"><g><path d="M 4.0625 -1.578125 C 4.0625 -1.066406 3.875 -0.660156 3.5 -0.359375 C 3.132812 -0.0664062 2.625 0.078125 1.96875 0.078125 C 1.363281 0.078125 0.828125 -0.0351562 0.359375 -0.265625 L 0.359375 -1.375 C 0.742188 -1.207031 1.066406 -1.085938 1.328125 -1.015625 C 1.597656 -0.953125 1.84375 -0.921875 2.0625 -0.921875 C 2.332031 -0.921875 2.535156 -0.96875 2.671875 -1.0625 C 2.816406 -1.164062 2.890625 -1.316406 2.890625 -1.515625 C 2.890625 -1.628906 2.859375 -1.726562 2.796875 -1.8125 C 2.734375 -1.90625 2.640625 -1.988281 2.515625 -2.0625 C 2.398438 -2.144531 2.15625 -2.273438 1.78125 -2.453125 C 1.4375 -2.609375 1.175781 -2.757812 1 -2.90625 C 0.820312 -3.0625 0.679688 -3.238281 0.578125 -3.4375 C 0.484375 -3.644531 0.4375 -3.878906 0.4375 -4.140625 C 0.4375 -4.640625 0.601562 -5.035156 0.9375 -5.328125 C 1.28125 -5.617188 1.753906 -5.765625 2.359375 -5.765625 C 2.648438 -5.765625 2.925781 -5.726562 3.1875 -5.65625 C 3.457031 -5.582031 3.738281 -5.484375 4.03125 -5.359375 L 3.65625 -4.421875 C 3.351562 -4.546875 3.101562 -4.628906 2.90625 -4.671875 C 2.707031 -4.722656 2.507812 -4.75 2.3125 -4.75 C 2.082031 -4.75 1.90625 -4.695312 1.78125 -4.59375 C 1.664062 -4.488281 1.609375 -4.351562 1.609375 -4.1875 C 1.609375 -4.070312 1.628906 -3.972656 1.671875 -3.890625 C 1.722656 -3.816406 1.800781 -3.742188 1.90625 -3.671875 C 2.019531 -3.597656 2.273438 -3.46875 2.671875 -3.28125 C 3.203125 -3.019531 3.566406 -2.757812 3.765625 -2.5 C 3.960938 -2.25 4.0625 -1.941406 4.0625 -1.578125 Z M 4.0625 -1.578125 "/></g></g></g><g fill="rgb(23.919678%, 23.919678%, 23.919678%)" fill-opacity="1"><g transform="translate(151.251543, 239.627622)"><g><path d="M 2.90625 0 L 1.703125 0 L 1.703125 -4.671875 L 0.15625 -4.671875 L 0.15625 -5.671875 L 4.453125 -5.671875 L 4.453125 -4.671875 L 2.90625 -4.671875 Z M 2.90625 0 "/></g></g></g><g fill="rgb(23.919678%, 23.919678%, 23.919678%)" fill-opacity="1"><g transform="translate(159.032809, 239.627622)"><g><path d="M 4.1875 0 L 3.78125 -1.34375 L 1.703125 -1.34375 L 1.296875 0 L 0 0 L 2 -5.703125 L 3.46875 -5.703125 L 5.484375 0 Z M 3.484375 -2.359375 C 3.109375 -3.585938 2.894531 -4.28125 2.84375 -4.4375 C 2.800781 -4.59375 2.769531 -4.71875 2.75 -4.8125 C 2.664062 -4.488281 2.421875 -3.671875 2.015625 -2.359375 Z M 3.484375 -2.359375 "/></g></g></g><g fill="rgb(23.919678%, 23.919678%, 23.919678%)" fill-opacity="1"><g transform="translate(167.694733, 239.627622)"><g><path d="M 3.125 -4.75 C 2.675781 -4.75 2.328125 -4.578125 2.078125 -4.234375 C 1.828125 -3.898438 1.703125 -3.429688 1.703125 -2.828125 C 1.703125 -1.554688 2.175781 -0.921875 3.125 -0.921875 C 3.519531 -0.921875 4.003906 -1.019531 4.578125 -1.21875 L 4.578125 -0.21875 C 4.109375 -0.0195312 3.585938 0.078125 3.015625 0.078125 C 2.191406 0.078125 1.5625 -0.171875 1.125 -0.671875 C 0.6875 -1.171875 0.46875 -1.890625 0.46875 -2.828125 C 0.46875 -3.421875 0.570312 -3.9375 0.78125 -4.375 C 1 -4.820312 1.304688 -5.164062 1.703125 -5.40625 C 2.109375 -5.644531 2.582031 -5.765625 3.125 -5.765625 C 3.675781 -5.765625 4.226562 -5.628906 4.78125 -5.359375 L 4.40625 -4.375 C 4.1875 -4.476562 3.96875 -4.566406 3.75 -4.640625 C 3.539062 -4.710938 3.332031 -4.75 3.125 -4.75 Z M 3.125 -4.75 "/></g></g></g><g fill="rgb(23.919678%, 23.919678%, 23.919678%)" fill-opacity="1"><g transform="translate(175.937666, 239.627622)"><g><path d="M 5.28125 0 L 3.921875 0 L 2.421875 -2.390625 L 1.921875 -2.03125 L 1.921875 0 L 0.71875 0 L 0.71875 -5.671875 L 1.921875 -5.671875 L 1.921875 -3.078125 L 2.390625 -3.75 L 3.9375 -5.671875 L 5.265625 -5.671875 L 3.28125 -3.171875 Z M 5.28125 0 "/></g></g></g><g fill="rgb(23.919678%, 23.919678%, 23.919678%)" fill-opacity="1"><g transform="translate(184.393974, 239.627622)"><g/></g></g><g fill="rgb(23.919678%, 23.919678%, 23.919678%)" fill-opacity="1"><g transform="translate(189.638017, 239.627622)"><g><path d="M 3.984375 0 L 0.71875 0 L 0.71875 -5.671875 L 3.984375 -5.671875 L 3.984375 -4.6875 L 1.921875 -4.6875 L 1.921875 -3.4375 L 3.84375 -3.4375 L 3.84375 -2.453125 L 1.921875 -2.453125 L 1.921875 -1 L 3.984375 -1 Z M 3.984375 0 "/></g></g></g><g fill="rgb(23.919678%, 23.919678%, 23.919678%)" fill-opacity="1"><g transform="translate(197.267981, 239.627622)"><g><path d="M 5.75 0 L 4.21875 0 L 1.75 -4.296875 L 1.71875 -4.296875 C 1.769531 -3.535156 1.796875 -2.992188 1.796875 -2.671875 L 1.796875 0 L 0.71875 0 L 0.71875 -5.671875 L 2.234375 -5.671875 L 4.703125 -1.421875 L 4.71875 -1.421875 C 4.6875 -2.160156 4.671875 -2.679688 4.671875 -2.984375 L 4.671875 -5.671875 L 5.75 -5.671875 Z M 5.75 0 "/></g></g></g><g fill="rgb(23.919678%, 23.919678%, 23.919678%)" fill-opacity="1"><g transform="translate(206.907556, 239.627622)"><g><path d="M 2.90625 0 L 1.703125 0 L 1.703125 -4.671875 L 0.15625 -4.671875 L 0.15625 -5.671875 L 4.453125 -5.671875 L 4.453125 -4.671875 L 2.90625 -4.671875 Z M 2.90625 0 "/></g></g></g><g fill="rgb(23.919678%, 23.919678%, 23.919678%)" fill-opacity="1"><g transform="translate(214.688829, 239.627622)"><g><path d="M 6.25 0 L 4.875 0 L 4.109375 -2.984375 C 4.078125 -3.085938 4.023438 -3.304688 3.953125 -3.640625 C 3.890625 -3.972656 3.851562 -4.195312 3.84375 -4.3125 C 3.820312 -4.164062 3.78125 -3.9375 3.71875 -3.625 C 3.65625 -3.320312 3.609375 -3.101562 3.578125 -2.96875 L 2.8125 0 L 1.453125 0 L 0 -5.671875 L 1.1875 -5.671875 L 1.90625 -2.578125 C 2.03125 -2.003906 2.125 -1.507812 2.1875 -1.09375 C 2.195312 -1.238281 2.226562 -1.460938 2.28125 -1.765625 C 2.34375 -2.078125 2.398438 -2.320312 2.453125 -2.5 L 3.28125 -5.671875 L 4.421875 -5.671875 L 5.25 -2.5 C 5.28125 -2.351562 5.320312 -2.132812 5.375 -1.84375 C 5.425781 -1.550781 5.46875 -1.300781 5.5 -1.09375 C 5.53125 -1.289062 5.570312 -1.539062 5.625 -1.84375 C 5.6875 -2.144531 5.738281 -2.390625 5.78125 -2.578125 L 6.5 -5.671875 L 7.6875 -5.671875 Z M 6.25 0 "/></g></g></g><g fill="rgb(23.919678%, 23.919678%, 23.919678%)" fill-opacity="1"><g transform="translate(225.550461, 239.627622)"><g><path d="M 0.71875 0 L 0.71875 -5.671875 L 1.921875 -5.671875 L 1.921875 0 Z M 0.71875 0 "/></g></g></g><g fill="rgb(23.919678%, 23.919678%, 23.919678%)" fill-opacity="1"><g transform="translate(231.360924, 239.627622)"><g><path d="M 3.125 -4.75 C 2.675781 -4.75 2.328125 -4.578125 2.078125 -4.234375 C 1.828125 -3.898438 1.703125 -3.429688 1.703125 -2.828125 C 1.703125 -1.554688 2.175781 -0.921875 3.125 -0.921875 C 3.519531 -0.921875 4.003906 -1.019531 4.578125 -1.21875 L 4.578125 -0.21875 C 4.109375 -0.0195312 3.585938 0.078125 3.015625 0.078125 C 2.191406 0.078125 1.5625 -0.171875 1.125 -0.671875 C 0.6875 -1.171875 0.46875 -1.890625 0.46875 -2.828125 C 0.46875 -3.421875 0.570312 -3.9375 0.78125 -4.375 C 1 -4.820312 1.304688 -5.164062 1.703125 -5.40625 C 2.109375 -5.644531 2.582031 -5.765625 3.125 -5.765625 C 3.675781 -5.765625 4.226562 -5.628906 4.78125 -5.359375 L 4.40625 -4.375 C 4.1875 -4.476562 3.96875 -4.566406 3.75 -4.640625 C 3.539062 -4.710938 3.332031 -4.75 3.125 -4.75 Z M 3.125 -4.75 "/></g></g></g><g fill="rgb(23.919678%, 23.919678%, 23.919678%)" fill-opacity="1"><g transform="translate(239.603851, 239.627622)"><g><path d="M 5.28125 0 L 3.921875 0 L 2.421875 -2.390625 L 1.921875 -2.03125 L 1.921875 0 L 0.71875 0 L 0.71875 -5.671875 L 1.921875 -5.671875 L 1.921875 -3.078125 L 2.390625 -3.75 L 3.9375 -5.671875 L 5.265625 -5.671875 L 3.28125 -3.171875 Z M 5.28125 0 "/></g></g></g><g fill="rgb(23.919678%, 23.919678%, 23.919678%)" fill-opacity="1"><g transform="translate(248.060164, 239.627622)"><g><path d="M 0.71875 0 L 0.71875 -5.671875 L 1.921875 -5.671875 L 1.921875 -1 L 4.21875 -1 L 4.21875 0 Z M 0.71875 0 "/></g></g></g><g fill="rgb(23.919678%, 23.919678%, 23.919678%)" fill-opacity="1"><g transform="translate(255.728918, 239.627622)"><g><path d="M 3.984375 0 L 0.71875 0 L 0.71875 -5.671875 L 3.984375 -5.671875 L 3.984375 -4.6875 L 1.921875 -4.6875 L 1.921875 -3.4375 L 3.84375 -3.4375 L 3.84375 -2.453125 L 1.921875 -2.453125 L 1.921875 -1 L 3.984375 -1 Z M 3.984375 0 "/></g></g></g><g fill="rgb(23.919678%, 23.919678%, 23.919678%)" fill-opacity="1"><g transform="translate(263.358877, 239.627622)"><g><path d="M 1.921875 -3.15625 L 2.3125 -3.15625 C 2.6875 -3.15625 2.960938 -3.21875 3.140625 -3.34375 C 3.328125 -3.46875 3.421875 -3.671875 3.421875 -3.953125 C 3.421875 -4.210938 3.328125 -4.398438 3.140625 -4.515625 C 2.953125 -4.628906 2.664062 -4.6875 2.28125 -4.6875 L 1.921875 -4.6875 Z M 1.921875 -2.171875 L 1.921875 0 L 0.71875 0 L 0.71875 -5.671875 L 2.375 -5.671875 C 3.144531 -5.671875 3.710938 -5.53125 4.078125 -5.25 C 4.453125 -4.96875 4.640625 -4.546875 4.640625 -3.984375 C 4.640625 -3.640625 4.546875 -3.335938 4.359375 -3.078125 C 4.171875 -2.816406 3.910156 -2.613281 3.578125 -2.46875 C 4.429688 -1.195312 4.988281 -0.375 5.25 0 L 3.921875 0 L 2.5625 -2.171875 Z M 1.921875 -2.171875 "/></g></g></g><g clip-path="url(#id3)"><path fill="rgb(65.879822%, 65.879822%, 65.879822%)" d="M 113.816406 174.90625 L 262.316406 174.90625 L 262.316406 323.40625 L 113.816406 323.40625 Z M 113.816406 174.90625 " fill-opacity="1" fill-rule="nonzero"/></g><g clip-path="url(#id4)"><path fill="rgb(65.879822%, 65.879822%, 65.879822%)" d="M 113.816406 150.53125 L 262.316406 150.53125 L 262.316406 299.03125 L 113.816406 299.03125 Z M 113.816406 150.53125 " fill-opacity="1" fill-rule="nonzero"/></g></svg>